solid OpenSCAD_Model
  facet normal 1 -0 0
    outer loop
      vertex 0.41 0 0.2
      vertex 0.41 10 0
      vertex 0.41 10 0.2
    endloop
  endfacet
  facet normal 1 0 0
    outer loop
      vertex 0.41 10 0
      vertex 0.41 0 0.2
      vertex 0.41 0 0
    endloop
  endfacet
  facet normal -0 0 1
    outer loop
      vertex 0 10 0.2
      vertex 0.41 0 0.2
      vertex 0.41 10 0.2
    endloop
  endfacet
  facet normal 0 0 1
    outer loop
      vertex 0.41 0 0.2
      vertex 0 10 0.2
      vertex 0 0 0.2
    endloop
  endfacet
  facet normal 0 0 -1
    outer loop
      vertex 0 0 0
      vertex 0.41 10 0
      vertex 0.41 0 0
    endloop
  endfacet
  facet normal -0 0 -1
    outer loop
      vertex 0.41 10 0
      vertex 0 0 0
      vertex 0 10 0
    endloop
  endfacet
  facet normal -1 0 0
    outer loop
      vertex 0 0 0
      vertex 0 10 0.2
      vertex 0 10 0
    endloop
  endfacet
  facet normal -1 -0 0
    outer loop
      vertex 0 10 0.2
      vertex 0 0 0
      vertex 0 0 0.2
    endloop
  endfacet
  facet normal 0 1 -0
    outer loop
      vertex 0.41 10 0
      vertex 0 10 0.2
      vertex 0.41 10 0.2
    endloop
  endfacet
  facet normal 0 1 0
    outer loop
      vertex 0 10 0.2
      vertex 0.41 10 0
      vertex 0 10 0
    endloop
  endfacet
  facet normal 0 -1 0
    outer loop
      vertex 0 0 0
      vertex 0.41 0 0.2
      vertex 0 0 0.2
    endloop
  endfacet
  facet normal 0 -1 -0
    outer loop
      vertex 0.41 0 0.2
      vertex 0 0 0
      vertex 0.41 0 0
    endloop
  endfacet
  facet normal 1 -0 0
    outer loop
      vertex 10.8 0 0.4
      vertex 10.8 10 0
      vertex 10.8 10 0.4
    endloop
  endfacet
  facet normal 1 0 0
    outer loop
      vertex 10.8 10 0
      vertex 10.8 0 0.4
      vertex 10.8 0 0
    endloop
  endfacet
  facet normal -0 0 1
    outer loop
      vertex 10 10 0.4
      vertex 10.8 0 0.4
      vertex 10.8 10 0.4
    endloop
  endfacet
  facet normal 0 0 1
    outer loop
      vertex 10.8 0 0.4
      vertex 10 10 0.4
      vertex 10 0 0.4
    endloop
  endfacet
  facet normal 0 0 -1
    outer loop
      vertex 10 0 0
      vertex 10.8 10 0
      vertex 10.8 0 0
    endloop
  endfacet
  facet normal -0 0 -1
    outer loop
      vertex 10.8 10 0
      vertex 10 0 0
      vertex 10 10 0
    endloop
  endfacet
  facet normal -1 0 0
    outer loop
      vertex 10 0 0
      vertex 10 10 0.4
      vertex 10 10 0
    endloop
  endfacet
  facet normal -1 -0 0
    outer loop
      vertex 10 10 0.4
      vertex 10 0 0
      vertex 10 0 0.4
    endloop
  endfacet
  facet normal 0 1 -0
    outer loop
      vertex 10.8 10 0
      vertex 10 10 0.4
      vertex 10.8 10 0.4
    endloop
  endfacet
  facet normal 0 1 0
    outer loop
      vertex 10 10 0.4
      vertex 10.8 10 0
      vertex 10 10 0
    endloop
  endfacet
  facet normal 0 -1 0
    outer loop
      vertex 10 0 0
      vertex 10.8 0 0.4
      vertex 10 0 0.4
    endloop
  endfacet
  facet normal 0 -1 -0
    outer loop
      vertex 10.8 0 0.4
      vertex 10 0 0
      vertex 10.8 0 0
    endloop
  endfacet
  facet normal 1 -0 0
    outer loop
      vertex 21.2 0 0.599999
      vertex 21.2 10 0
      vertex 21.2 10 0.599999
    endloop
  endfacet
  facet normal 1 0 0
    outer loop
      vertex 21.2 10 0
      vertex 21.2 0 0.599999
      vertex 21.2 0 0
    endloop
  endfacet
  facet normal -0 0 1
    outer loop
      vertex 20 10 0.599999
      vertex 21.2 0 0.599999
      vertex 21.2 10 0.599999
    endloop
  endfacet
  facet normal 0 0 1
    outer loop
      vertex 21.2 0 0.599999
      vertex 20 10 0.599999
      vertex 20 0 0.599999
    endloop
  endfacet
  facet normal 0 0 -1
    outer loop
      vertex 20 0 0
      vertex 21.2 10 0
      vertex 21.2 0 0
    endloop
  endfacet
  facet normal -0 0 -1
    outer loop
      vertex 21.2 10 0
      vertex 20 0 0
      vertex 20 10 0
    endloop
  endfacet
  facet normal -1 0 0
    outer loop
      vertex 20 0 0
      vertex 20 10 0.599999
      vertex 20 10 0
    endloop
  endfacet
  facet normal -1 -0 0
    outer loop
      vertex 20 10 0.599999
      vertex 20 0 0
      vertex 20 0 0.599999
    endloop
  endfacet
  facet normal 0 1 -0
    outer loop
      vertex 21.2 10 0
      vertex 20 10 0.599999
      vertex 21.2 10 0.599999
    endloop
  endfacet
  facet normal 0 1 0
    outer loop
      vertex 20 10 0.599999
      vertex 21.2 10 0
      vertex 20 10 0
    endloop
  endfacet
  facet normal 0 -1 0
    outer loop
      vertex 20 0 0
      vertex 21.2 0 0.599999
      vertex 20 0 0.599999
    endloop
  endfacet
  facet normal 0 -1 -0
    outer loop
      vertex 21.2 0 0.599999
      vertex 20 0 0
      vertex 21.2 0 0
    endloop
  endfacet
  facet normal 1 -0 0
    outer loop
      vertex 31.6 0 0.799999
      vertex 31.6 10 0
      vertex 31.6 10 0.799999
    endloop
  endfacet
  facet normal 1 0 0
    outer loop
      vertex 31.6 10 0
      vertex 31.6 0 0.799999
      vertex 31.6 0 0
    endloop
  endfacet
  facet normal -0 0 1
    outer loop
      vertex 30 10 0.799999
      vertex 31.6 0 0.799999
      vertex 31.6 10 0.799999
    endloop
  endfacet
  facet normal 0 0 1
    outer loop
      vertex 31.6 0 0.799999
      vertex 30 10 0.799999
      vertex 30 0 0.799999
    endloop
  endfacet
  facet normal 0 0 -1
    outer loop
      vertex 30 0 0
      vertex 31.6 10 0
      vertex 31.6 0 0
    endloop
  endfacet
  facet normal -0 0 -1
    outer loop
      vertex 31.6 10 0
      vertex 30 0 0
      vertex 30 10 0
    endloop
  endfacet
  facet normal -1 0 0
    outer loop
      vertex 30 0 0
      vertex 30 10 0.799999
      vertex 30 10 0
    endloop
  endfacet
  facet normal -1 -0 0
    outer loop
      vertex 30 10 0.799999
      vertex 30 0 0
      vertex 30 0 0.799999
    endloop
  endfacet
  facet normal 0 1 -0
    outer loop
      vertex 31.6 10 0
      vertex 30 10 0.799999
      vertex 31.6 10 0.799999
    endloop
  endfacet
  facet normal 0 1 0
    outer loop
      vertex 30 10 0.799999
      vertex 31.6 10 0
      vertex 30 10 0
    endloop
  endfacet
  facet normal 0 -1 0
    outer loop
      vertex 30 0 0
      vertex 31.6 0 0.799999
      vertex 30 0 0.799999
    endloop
  endfacet
  facet normal 0 -1 -0
    outer loop
      vertex 31.6 0 0.799999
      vertex 30 0 0
      vertex 31.6 0 0
    endloop
  endfacet
  facet normal 1 -0 0
    outer loop
      vertex 42 0 1
      vertex 42 10 0
      vertex 42 10 1
    endloop
  endfacet
  facet normal 1 0 0
    outer loop
      vertex 42 10 0
      vertex 42 0 1
      vertex 42 0 0
    endloop
  endfacet
  facet normal -0 0 1
    outer loop
      vertex 40 10 1
      vertex 42 0 1
      vertex 42 10 1
    endloop
  endfacet
  facet normal 0 0 1
    outer loop
      vertex 42 0 1
      vertex 40 10 1
      vertex 40 0 1
    endloop
  endfacet
  facet normal 0 0 -1
    outer loop
      vertex 40 0 0
      vertex 42 10 0
      vertex 42 0 0
    endloop
  endfacet
  facet normal -0 0 -1
    outer loop
      vertex 42 10 0
      vertex 40 0 0
      vertex 40 10 0
    endloop
  endfacet
  facet normal -1 0 0
    outer loop
      vertex 40 0 0
      vertex 40 10 1
      vertex 40 10 0
    endloop
  endfacet
  facet normal -1 -0 0
    outer loop
      vertex 40 10 1
      vertex 40 0 0
      vertex 40 0 1
    endloop
  endfacet
  facet normal 0 1 -0
    outer loop
      vertex 42 10 0
      vertex 40 10 1
      vertex 42 10 1
    endloop
  endfacet
  facet normal 0 1 0
    outer loop
      vertex 40 10 1
      vertex 42 10 0
      vertex 40 10 0
    endloop
  endfacet
  facet normal 0 -1 0
    outer loop
      vertex 40 0 0
      vertex 42 0 1
      vertex 40 0 1
    endloop
  endfacet
  facet normal 0 -1 -0
    outer loop
      vertex 42 0 1
      vertex 40 0 0
      vertex 42 0 0
    endloop
  endfacet
  facet normal 1 -0 0
    outer loop
      vertex 52.4 0 1.2
      vertex 52.4 10 0
      vertex 52.4 10 1.2
    endloop
  endfacet
  facet normal 1 0 0
    outer loop
      vertex 52.4 10 0
      vertex 52.4 0 1.2
      vertex 52.4 0 0
    endloop
  endfacet
  facet normal -0 0 1
    outer loop
      vertex 50 10 1.2
      vertex 52.4 0 1.2
      vertex 52.4 10 1.2
    endloop
  endfacet
  facet normal 0 0 1
    outer loop
      vertex 52.4 0 1.2
      vertex 50 10 1.2
      vertex 50 0 1.2
    endloop
  endfacet
  facet normal 0 0 -1
    outer loop
      vertex 50 0 0
      vertex 52.4 10 0
      vertex 52.4 0 0
    endloop
  endfacet
  facet normal -0 0 -1
    outer loop
      vertex 52.4 10 0
      vertex 50 0 0
      vertex 50 10 0
    endloop
  endfacet
  facet normal -1 0 0
    outer loop
      vertex 50 0 0
      vertex 50 10 1.2
      vertex 50 10 0
    endloop
  endfacet
  facet normal -1 -0 0
    outer loop
      vertex 50 10 1.2
      vertex 50 0 0
      vertex 50 0 1.2
    endloop
  endfacet
  facet normal 0 1 -0
    outer loop
      vertex 52.4 10 0
      vertex 50 10 1.2
      vertex 52.4 10 1.2
    endloop
  endfacet
  facet normal 0 1 0
    outer loop
      vertex 50 10 1.2
      vertex 52.4 10 0
      vertex 50 10 0
    endloop
  endfacet
  facet normal 0 -1 0
    outer loop
      vertex 50 0 0
      vertex 52.4 0 1.2
      vertex 50 0 1.2
    endloop
  endfacet
  facet normal 0 -1 -0
    outer loop
      vertex 52.4 0 1.2
      vertex 50 0 0
      vertex 52.4 0 0
    endloop
  endfacet
  facet normal 1 -0 0
    outer loop
      vertex 62.8 0 1.4
      vertex 62.8 10 0
      vertex 62.8 10 1.4
    endloop
  endfacet
  facet normal 1 0 0
    outer loop
      vertex 62.8 10 0
      vertex 62.8 0 1.4
      vertex 62.8 0 0
    endloop
  endfacet
  facet normal -0 0 1
    outer loop
      vertex 60 10 1.4
      vertex 62.8 0 1.4
      vertex 62.8 10 1.4
    endloop
  endfacet
  facet normal 0 0 1
    outer loop
      vertex 62.8 0 1.4
      vertex 60 10 1.4
      vertex 60 0 1.4
    endloop
  endfacet
  facet normal 0 0 -1
    outer loop
      vertex 60 0 0
      vertex 62.8 10 0
      vertex 62.8 0 0
    endloop
  endfacet
  facet normal -0 0 -1
    outer loop
      vertex 62.8 10 0
      vertex 60 0 0
      vertex 60 10 0
    endloop
  endfacet
  facet normal -1 0 0
    outer loop
      vertex 60 0 0
      vertex 60 10 1.4
      vertex 60 10 0
    endloop
  endfacet
  facet normal -1 -0 0
    outer loop
      vertex 60 10 1.4
      vertex 60 0 0
      vertex 60 0 1.4
    endloop
  endfacet
  facet normal 0 1 -0
    outer loop
      vertex 62.8 10 0
      vertex 60 10 1.4
      vertex 62.8 10 1.4
    endloop
  endfacet
  facet normal 0 1 0
    outer loop
      vertex 60 10 1.4
      vertex 62.8 10 0
      vertex 60 10 0
    endloop
  endfacet
  facet normal 0 -1 0
    outer loop
      vertex 60 0 0
      vertex 62.8 0 1.4
      vertex 60 0 1.4
    endloop
  endfacet
  facet normal 0 -1 -0
    outer loop
      vertex 62.8 0 1.4
      vertex 60 0 0
      vertex 62.8 0 0
    endloop
  endfacet
  facet normal 1 -0 0
    outer loop
      vertex 73.2 0 1.6
      vertex 73.2 10 0
      vertex 73.2 10 1.6
    endloop
  endfacet
  facet normal 1 0 0
    outer loop
      vertex 73.2 10 0
      vertex 73.2 0 1.6
      vertex 73.2 0 0
    endloop
  endfacet
  facet normal -0 0 1
    outer loop
      vertex 70 10 1.6
      vertex 73.2 0 1.6
      vertex 73.2 10 1.6
    endloop
  endfacet
  facet normal 0 0 1
    outer loop
      vertex 73.2 0 1.6
      vertex 70 10 1.6
      vertex 70 0 1.6
    endloop
  endfacet
  facet normal 0 0 -1
    outer loop
      vertex 70 0 0
      vertex 73.2 10 0
      vertex 73.2 0 0
    endloop
  endfacet
  facet normal -0 0 -1
    outer loop
      vertex 73.2 10 0
      vertex 70 0 0
      vertex 70 10 0
    endloop
  endfacet
  facet normal -1 0 0
    outer loop
      vertex 70 0 0
      vertex 70 10 1.6
      vertex 70 10 0
    endloop
  endfacet
  facet normal -1 -0 0
    outer loop
      vertex 70 10 1.6
      vertex 70 0 0
      vertex 70 0 1.6
    endloop
  endfacet
  facet normal 0 1 -0
    outer loop
      vertex 73.2 10 0
      vertex 70 10 1.6
      vertex 73.2 10 1.6
    endloop
  endfacet
  facet normal 0 1 0
    outer loop
      vertex 70 10 1.6
      vertex 73.2 10 0
      vertex 70 10 0
    endloop
  endfacet
  facet normal 0 -1 0
    outer loop
      vertex 70 0 0
      vertex 73.2 0 1.6
      vertex 70 0 1.6
    endloop
  endfacet
  facet normal 0 -1 -0
    outer loop
      vertex 73.2 0 1.6
      vertex 70 0 0
      vertex 73.2 0 0
    endloop
  endfacet
  facet normal 1 -0 0
    outer loop
      vertex 83.6 0 1.8
      vertex 83.6 10 0
      vertex 83.6 10 1.8
    endloop
  endfacet
  facet normal 1 0 0
    outer loop
      vertex 83.6 10 0
      vertex 83.6 0 1.8
      vertex 83.6 0 0
    endloop
  endfacet
  facet normal -0 0 1
    outer loop
      vertex 80 10 1.8
      vertex 83.6 0 1.8
      vertex 83.6 10 1.8
    endloop
  endfacet
  facet normal 0 0 1
    outer loop
      vertex 83.6 0 1.8
      vertex 80 10 1.8
      vertex 80 0 1.8
    endloop
  endfacet
  facet normal 0 0 -1
    outer loop
      vertex 80 0 0
      vertex 83.6 10 0
      vertex 83.6 0 0
    endloop
  endfacet
  facet normal -0 0 -1
    outer loop
      vertex 83.6 10 0
      vertex 80 0 0
      vertex 80 10 0
    endloop
  endfacet
  facet normal -1 0 0
    outer loop
      vertex 80 0 0
      vertex 80 10 1.8
      vertex 80 10 0
    endloop
  endfacet
  facet normal -1 -0 0
    outer loop
      vertex 80 10 1.8
      vertex 80 0 0
      vertex 80 0 1.8
    endloop
  endfacet
  facet normal 0 1 -0
    outer loop
      vertex 83.6 10 0
      vertex 80 10 1.8
      vertex 83.6 10 1.8
    endloop
  endfacet
  facet normal 0 1 0
    outer loop
      vertex 80 10 1.8
      vertex 83.6 10 0
      vertex 80 10 0
    endloop
  endfacet
  facet normal 0 -1 0
    outer loop
      vertex 80 0 0
      vertex 83.6 0 1.8
      vertex 80 0 1.8
    endloop
  endfacet
  facet normal 0 -1 -0
    outer loop
      vertex 83.6 0 1.8
      vertex 80 0 0
      vertex 83.6 0 0
    endloop
  endfacet
  facet normal 1 -0 0
    outer loop
      vertex 94 0 2
      vertex 94 10 0
      vertex 94 10 2
    endloop
  endfacet
  facet normal 1 0 0
    outer loop
      vertex 94 10 0
      vertex 94 0 2
      vertex 94 0 0
    endloop
  endfacet
  facet normal -0 0 1
    outer loop
      vertex 90 10 2
      vertex 94 0 2
      vertex 94 10 2
    endloop
  endfacet
  facet normal 0 0 1
    outer loop
      vertex 94 0 2
      vertex 90 10 2
      vertex 90 0 2
    endloop
  endfacet
  facet normal 0 0 -1
    outer loop
      vertex 90 0 0
      vertex 94 10 0
      vertex 94 0 0
    endloop
  endfacet
  facet normal -0 0 -1
    outer loop
      vertex 94 10 0
      vertex 90 0 0
      vertex 90 10 0
    endloop
  endfacet
  facet normal -1 0 0
    outer loop
      vertex 90 0 0
      vertex 90 10 2
      vertex 90 10 0
    endloop
  endfacet
  facet normal -1 -0 0
    outer loop
      vertex 90 10 2
      vertex 90 0 0
      vertex 90 0 2
    endloop
  endfacet
  facet normal 0 1 -0
    outer loop
      vertex 94 10 0
      vertex 90 10 2
      vertex 94 10 2
    endloop
  endfacet
  facet normal 0 1 0
    outer loop
      vertex 90 10 2
      vertex 94 10 0
      vertex 90 10 0
    endloop
  endfacet
  facet normal 0 -1 0
    outer loop
      vertex 90 0 0
      vertex 94 0 2
      vertex 90 0 2
    endloop
  endfacet
  facet normal 0 -1 -0
    outer loop
      vertex 94 0 2
      vertex 90 0 0
      vertex 94 0 0
    endloop
  endfacet
endsolid OpenSCAD_Model
