solid OpenSCAD_Model
  facet normal -0.909137 -0.404061 0.101015
    outer loop
      vertex -5.5 -5 0
      vertex -4.5 -5 9
      vertex -5 -4.5 6.5
    endloop
  endfacet
  facet normal -0.942809 0.235702 0.235702
    outer loop
      vertex -4.5 -5 9
      vertex -4.5 -4 8
      vertex -5 -4.5 6.5
    endloop
  endfacet
  facet normal 0.235702 -0.942809 0.235702
    outer loop
      vertex -4.5 -4 8
      vertex -5.5 -4 9
      vertex -5 -4.5 6.5
    endloop
  endfacet
  facet normal -0.404061 -0.909137 0.101015
    outer loop
      vertex -5.5 -4 9
      vertex -5.5 -5 0
      vertex -5 -4.5 6.5
    endloop
  endfacet
  facet normal 0.57735 0.57735 0.57735
    outer loop
      vertex -4.5 -5 9
      vertex -3.5 -5 8
      vertex -4 -4.5 8
    endloop
  endfacet
  facet normal 0.57735 0.57735 0.57735
    outer loop
      vertex -3.5 -5 8
      vertex -3.5 -4 7
      vertex -4 -4.5 8
    endloop
  endfacet
  facet normal 0.57735 0.57735 0.57735
    outer loop
      vertex -3.5 -4 7
      vertex -4.5 -4 8
      vertex -4 -4.5 8
    endloop
  endfacet
  facet normal 0.57735 0.57735 0.57735
    outer loop
      vertex -4.5 -4 8
      vertex -4.5 -5 9
      vertex -4 -4.5 8
    endloop
  endfacet
  facet normal 0.57735 0.57735 0.57735
    outer loop
      vertex -3.5 -5 8
      vertex -2.5 -5 7
      vertex -3 -4.5 7
    endloop
  endfacet
  facet normal 0.57735 0.57735 0.57735
    outer loop
      vertex -2.5 -5 7
      vertex -2.5 -4 6
      vertex -3 -4.5 7
    endloop
  endfacet
  facet normal 0.57735 0.57735 0.57735
    outer loop
      vertex -2.5 -4 6
      vertex -3.5 -4 7
      vertex -3 -4.5 7
    endloop
  endfacet
  facet normal 0.57735 0.57735 0.57735
    outer loop
      vertex -3.5 -4 7
      vertex -3.5 -5 8
      vertex -3 -4.5 7
    endloop
  endfacet
  facet normal 0.666667 0.333333 0.666667
    outer loop
      vertex -2.5 -5 7
      vertex -1.5 -5 6
      vertex -2 -4.5 6.25
    endloop
  endfacet
  facet normal 0.447214 -0 0.894427
    outer loop
      vertex -1.5 -5 6
      vertex -1.5 -4 6
      vertex -2 -4.5 6.25
    endloop
  endfacet
  facet normal 0 0.447214 0.894427
    outer loop
      vertex -1.5 -4 6
      vertex -2.5 -4 6
      vertex -2 -4.5 6.25
    endloop
  endfacet
  facet normal 0.333333 0.666667 0.666667
    outer loop
      vertex -2.5 -4 6
      vertex -2.5 -5 7
      vertex -2 -4.5 6.25
    endloop
  endfacet
  facet normal 0.666667 0.333333 0.666667
    outer loop
      vertex -1.5 -5 6
      vertex -0.5 -5 5
      vertex -1 -4.5 5.25
    endloop
  endfacet
  facet normal 0.727607 0.485071 0.485071
    outer loop
      vertex -0.5 -5 5
      vertex -0.5 -4 4
      vertex -1 -4.5 5.25
    endloop
  endfacet
  facet normal 0.872872 0.218218 0.436436
    outer loop
      vertex -0.5 -4 4
      vertex -1.5 -4 6
      vertex -1 -4.5 5.25
    endloop
  endfacet
  facet normal 0.83205 0 0.5547
    outer loop
      vertex -1.5 -4 6
      vertex -1.5 -5 6
      vertex -1 -4.5 5.25
    endloop
  endfacet
  facet normal -0 0.83205 0.5547
    outer loop
      vertex -0.5 -5 5
      vertex 0.5 -5 5
      vertex 0 -4.5 4.25
    endloop
  endfacet
  facet normal 0.218218 0.872872 0.436436
    outer loop
      vertex 0.5 -5 5
      vertex 0.5 -4 3
      vertex 0 -4.5 4.25
    endloop
  endfacet
  facet normal 0.485071 0.727607 0.485071
    outer loop
      vertex 0.5 -4 3
      vertex -0.5 -4 4
      vertex 0 -4.5 4.25
    endloop
  endfacet
  facet normal 0.333333 0.666667 0.666667
    outer loop
      vertex -0.5 -4 4
      vertex -0.5 -5 5
      vertex 0 -4.5 4.25
    endloop
  endfacet
  facet normal -0 0.928477 0.371391
    outer loop
      vertex 0.5 -5 5
      vertex 1.5 -5 5
      vertex 1 -4.5 3.75
    endloop
  endfacet
  facet normal 0.156174 0.937043 0.312348
    outer loop
      vertex 1.5 -5 5
      vertex 1.5 -4 2
      vertex 1 -4.5 3.75
    endloop
  endfacet
  facet normal 0.348155 0.870388 0.348155
    outer loop
      vertex 1.5 -4 2
      vertex 0.5 -4 3
      vertex 1 -4.5 3.75
    endloop
  endfacet
  facet normal 0.218218 0.872872 0.436436
    outer loop
      vertex 0.5 -4 3
      vertex 0.5 -5 5
      vertex 1 -4.5 3.75
    endloop
  endfacet
  facet normal -0 0.961524 0.274721
    outer loop
      vertex 1.5 -5 5
      vertex 2.5 -5 5
      vertex 2 -4.5 3.25
    endloop
  endfacet
  facet normal 0.120386 0.963087 0.240772
    outer loop
      vertex 2.5 -5 5
      vertex 2.5 -4 1
      vertex 2 -4.5 3.25
    endloop
  endfacet
  facet normal 0.264906 0.927173 0.264906
    outer loop
      vertex 2.5 -4 1
      vertex 1.5 -4 2
      vertex 2 -4.5 3.25
    endloop
  endfacet
  facet normal 0.156174 0.937043 0.312348
    outer loop
      vertex 1.5 -4 2
      vertex 1.5 -5 5
      vertex 2 -4.5 3.25
    endloop
  endfacet
  facet normal -0 0.976187 0.21693
    outer loop
      vertex 2.5 -5 5
      vertex 3.5 -5 5
      vertex 3 -4.5 2.75
    endloop
  endfacet
  facet normal 0.09759 0.9759 0.19518
    outer loop
      vertex 3.5 -5 5
      vertex 3.5 -4 0
      vertex 3 -4.5 2.75
    endloop
  endfacet
  facet normal 0.212 0.953998 0.212
    outer loop
      vertex 3.5 -4 0
      vertex 2.5 -4 1
      vertex 3 -4.5 2.75
    endloop
  endfacet
  facet normal 0.120386 0.963087 0.240772
    outer loop
      vertex 2.5 -4 1
      vertex 2.5 -5 5
      vertex 3 -4.5 2.75
    endloop
  endfacet
  facet normal 0.880451 0.440225 0.17609
    outer loop
      vertex 3.5 -5 5
      vertex 4.5 -5 0
      vertex 4 -4.5 1.25
    endloop
  endfacet
  facet normal 0.928477 -0 0.371391
    outer loop
      vertex 4.5 -5 0
      vertex 4.5 -4 0
      vertex 4 -4.5 1.25
    endloop
  endfacet
  facet normal 0 0.928477 0.371391
    outer loop
      vertex 4.5 -4 0
      vertex 3.5 -4 0
      vertex 4 -4.5 1.25
    endloop
  endfacet
  facet normal 0.440225 0.880451 0.17609
    outer loop
      vertex 3.5 -4 0
      vertex 3.5 -5 5
      vertex 4 -4.5 1.25
    endloop
  endfacet
  facet normal 0 0 1
    outer loop
      vertex 4.5 -5 0
      vertex 5.5 -5 0
      vertex 5 -4.5 0
    endloop
  endfacet
  facet normal 0 -0 1
    outer loop
      vertex 5.5 -5 0
      vertex 5.5 -4 0
      vertex 5 -4.5 0
    endloop
  endfacet
  facet normal 0 0 1
    outer loop
      vertex 5.5 -4 0
      vertex 4.5 -4 0
      vertex 5 -4.5 0
    endloop
  endfacet
  facet normal 0 0 1
    outer loop
      vertex 4.5 -4 0
      vertex 4.5 -5 0
      vertex 5 -4.5 0
    endloop
  endfacet
  facet normal 0.57735 0.57735 0.57735
    outer loop
      vertex -5.5 -4 9
      vertex -4.5 -4 8
      vertex -5 -3.5 8
    endloop
  endfacet
  facet normal 0.57735 0.57735 0.57735
    outer loop
      vertex -4.5 -4 8
      vertex -4.5 -3 7
      vertex -5 -3.5 8
    endloop
  endfacet
  facet normal 0.57735 0.57735 0.57735
    outer loop
      vertex -4.5 -3 7
      vertex -5.5 -3 8
      vertex -5 -3.5 8
    endloop
  endfacet
  facet normal 0.57735 0.57735 0.57735
    outer loop
      vertex -5.5 -3 8
      vertex -5.5 -4 9
      vertex -5 -3.5 8
    endloop
  endfacet
  facet normal 0.57735 0.57735 0.57735
    outer loop
      vertex -4.5 -4 8
      vertex -3.5 -4 7
      vertex -4 -3.5 7
    endloop
  endfacet
  facet normal 0.57735 0.57735 0.57735
    outer loop
      vertex -3.5 -4 7
      vertex -3.5 -3 6
      vertex -4 -3.5 7
    endloop
  endfacet
  facet normal 0.57735 0.57735 0.57735
    outer loop
      vertex -3.5 -3 6
      vertex -4.5 -3 7
      vertex -4 -3.5 7
    endloop
  endfacet
  facet normal 0.57735 0.57735 0.57735
    outer loop
      vertex -4.5 -3 7
      vertex -4.5 -4 8
      vertex -4 -3.5 7
    endloop
  endfacet
  facet normal 0.666667 0.333333 0.666667
    outer loop
      vertex -3.5 -4 7
      vertex -2.5 -4 6
      vertex -3 -3.5 6.25
    endloop
  endfacet
  facet normal 0.447214 -0 0.894427
    outer loop
      vertex -2.5 -4 6
      vertex -2.5 -3 6
      vertex -3 -3.5 6.25
    endloop
  endfacet
  facet normal 0 0.447214 0.894427
    outer loop
      vertex -2.5 -3 6
      vertex -3.5 -3 6
      vertex -3 -3.5 6.25
    endloop
  endfacet
  facet normal 0.333333 0.666667 0.666667
    outer loop
      vertex -3.5 -3 6
      vertex -3.5 -4 7
      vertex -3 -3.5 6.25
    endloop
  endfacet
  facet normal -0 0.707107 0.707107
    outer loop
      vertex -2.5 -4 6
      vertex -1.5 -4 6
      vertex -2 -3.5 5.5
    endloop
  endfacet
  facet normal 0.408248 0.816497 0.408248
    outer loop
      vertex -1.5 -4 6
      vertex -1.5 -3 4
      vertex -2 -3.5 5.5
    endloop
  endfacet
  facet normal 0.816497 0.408248 0.408248
    outer loop
      vertex -1.5 -3 4
      vertex -2.5 -3 6
      vertex -2 -3.5 5.5
    endloop
  endfacet
  facet normal 0.707107 0 0.707107
    outer loop
      vertex -2.5 -3 6
      vertex -2.5 -4 6
      vertex -2 -3.5 5.5
    endloop
  endfacet
  facet normal 0.742781 0.557086 0.371391
    outer loop
      vertex -1.5 -4 6
      vertex -0.5 -4 4
      vertex -1 -3.5 4.25
    endloop
  endfacet
  facet normal 0.727607 0.485071 0.485071
    outer loop
      vertex -0.5 -4 4
      vertex -0.5 -3 3
      vertex -1 -3.5 4.25
    endloop
  endfacet
  facet normal 0.485071 0.727607 0.485071
    outer loop
      vertex -0.5 -3 3
      vertex -1.5 -3 4
      vertex -1 -3.5 4.25
    endloop
  endfacet
  facet normal 0.557086 0.742781 0.371391
    outer loop
      vertex -1.5 -3 4
      vertex -1.5 -4 6
      vertex -1 -3.5 4.25
    endloop
  endfacet
  facet normal 0.57735 0.57735 0.57735
    outer loop
      vertex -0.5 -4 4
      vertex 0.5 -4 3
      vertex 0 -3.5 3
    endloop
  endfacet
  facet normal 0.57735 0.57735 0.57735
    outer loop
      vertex 0.5 -4 3
      vertex 0.5 -3 2
      vertex 0 -3.5 3
    endloop
  endfacet
  facet normal 0.57735 0.57735 0.57735
    outer loop
      vertex 0.5 -3 2
      vertex -0.5 -3 3
      vertex 0 -3.5 3
    endloop
  endfacet
  facet normal 0.57735 0.57735 0.57735
    outer loop
      vertex -0.5 -3 3
      vertex -0.5 -4 4
      vertex 0 -3.5 3
    endloop
  endfacet
  facet normal 0.57735 0.57735 0.57735
    outer loop
      vertex 0.5 -4 3
      vertex 1.5 -4 2
      vertex 1 -3.5 2
    endloop
  endfacet
  facet normal 0.57735 0.57735 0.57735
    outer loop
      vertex 1.5 -4 2
      vertex 1.5 -3 1
      vertex 1 -3.5 2
    endloop
  endfacet
  facet normal 0.57735 0.57735 0.57735
    outer loop
      vertex 1.5 -3 1
      vertex 0.5 -3 2
      vertex 1 -3.5 2
    endloop
  endfacet
  facet normal 0.57735 0.57735 0.57735
    outer loop
      vertex 0.5 -3 2
      vertex 0.5 -4 3
      vertex 1 -3.5 2
    endloop
  endfacet
  facet normal 0.57735 0.57735 0.57735
    outer loop
      vertex 1.5 -4 2
      vertex 2.5 -4 1
      vertex 2 -3.5 1
    endloop
  endfacet
  facet normal 0.57735 0.57735 0.57735
    outer loop
      vertex 2.5 -4 1
      vertex 2.5 -3 0
      vertex 2 -3.5 1
    endloop
  endfacet
  facet normal 0.57735 0.57735 0.57735
    outer loop
      vertex 2.5 -3 0
      vertex 1.5 -3 1
      vertex 2 -3.5 1
    endloop
  endfacet
  facet normal 0.57735 0.57735 0.57735
    outer loop
      vertex 1.5 -3 1
      vertex 1.5 -4 2
      vertex 2 -3.5 1
    endloop
  endfacet
  facet normal 0.666667 0.333333 0.666667
    outer loop
      vertex 2.5 -4 1
      vertex 3.5 -4 0
      vertex 3 -3.5 0.25
    endloop
  endfacet
  facet normal 0.447214 -0 0.894427
    outer loop
      vertex 3.5 -4 0
      vertex 3.5 -3 0
      vertex 3 -3.5 0.25
    endloop
  endfacet
  facet normal 0 0.447214 0.894427
    outer loop
      vertex 3.5 -3 0
      vertex 2.5 -3 0
      vertex 3 -3.5 0.25
    endloop
  endfacet
  facet normal 0.333333 0.666667 0.666667
    outer loop
      vertex 2.5 -3 0
      vertex 2.5 -4 1
      vertex 3 -3.5 0.25
    endloop
  endfacet
  facet normal 0 0 1
    outer loop
      vertex 3.5 -4 0
      vertex 4.5 -4 0
      vertex 4 -3.5 0
    endloop
  endfacet
  facet normal 0 -0 1
    outer loop
      vertex 4.5 -4 0
      vertex 4.5 -3 0
      vertex 4 -3.5 0
    endloop
  endfacet
  facet normal 0 0 1
    outer loop
      vertex 4.5 -3 0
      vertex 3.5 -3 0
      vertex 4 -3.5 0
    endloop
  endfacet
  facet normal 0 0 1
    outer loop
      vertex 3.5 -3 0
      vertex 3.5 -4 0
      vertex 4 -3.5 0
    endloop
  endfacet
  facet normal 0 0 1
    outer loop
      vertex 4.5 -4 0
      vertex 5.5 -4 0
      vertex 5 -3.5 0
    endloop
  endfacet
  facet normal 0 -0 1
    outer loop
      vertex 5.5 -4 0
      vertex 5.5 -3 0
      vertex 5 -3.5 0
    endloop
  endfacet
  facet normal 0 0 1
    outer loop
      vertex 5.5 -3 0
      vertex 4.5 -3 0
      vertex 5 -3.5 0
    endloop
  endfacet
  facet normal 0 0 1
    outer loop
      vertex 4.5 -3 0
      vertex 4.5 -4 0
      vertex 5 -3.5 0
    endloop
  endfacet
  facet normal 0.57735 0.57735 0.57735
    outer loop
      vertex -5.5 -3 8
      vertex -4.5 -3 7
      vertex -5 -2.5 7
    endloop
  endfacet
  facet normal 0.57735 0.57735 0.57735
    outer loop
      vertex -4.5 -3 7
      vertex -4.5 -2 6
      vertex -5 -2.5 7
    endloop
  endfacet
  facet normal 0.57735 0.57735 0.57735
    outer loop
      vertex -4.5 -2 6
      vertex -5.5 -2 7
      vertex -5 -2.5 7
    endloop
  endfacet
  facet normal 0.57735 0.57735 0.57735
    outer loop
      vertex -5.5 -2 7
      vertex -5.5 -3 8
      vertex -5 -2.5 7
    endloop
  endfacet
  facet normal 0.666667 0.333333 0.666667
    outer loop
      vertex -4.5 -3 7
      vertex -3.5 -3 6
      vertex -4 -2.5 6.25
    endloop
  endfacet
  facet normal 0.447214 -0 0.894427
    outer loop
      vertex -3.5 -3 6
      vertex -3.5 -2 6
      vertex -4 -2.5 6.25
    endloop
  endfacet
  facet normal 0 0.447214 0.894427
    outer loop
      vertex -3.5 -2 6
      vertex -4.5 -2 6
      vertex -4 -2.5 6.25
    endloop
  endfacet
  facet normal 0.333333 0.666667 0.666667
    outer loop
      vertex -4.5 -2 6
      vertex -4.5 -3 7
      vertex -4 -2.5 6.25
    endloop
  endfacet
  facet normal -0 0.707107 0.707107
    outer loop
      vertex -3.5 -3 6
      vertex -2.5 -3 6
      vertex -3 -2.5 5.5
    endloop
  endfacet
  facet normal 0.408248 0.816497 0.408248
    outer loop
      vertex -2.5 -3 6
      vertex -2.5 -2 4
      vertex -3 -2.5 5.5
    endloop
  endfacet
  facet normal 0.816497 0.408248 0.408248
    outer loop
      vertex -2.5 -2 4
      vertex -3.5 -2 6
      vertex -3 -2.5 5.5
    endloop
  endfacet
  facet normal 0.707107 0 0.707107
    outer loop
      vertex -3.5 -2 6
      vertex -3.5 -3 6
      vertex -3 -2.5 5.5
    endloop
  endfacet
  facet normal 0.742781 0.557086 0.371391
    outer loop
      vertex -2.5 -3 6
      vertex -1.5 -3 4
      vertex -2 -2.5 4.25
    endloop
  endfacet
  facet normal 0.727607 0.485071 0.485071
    outer loop
      vertex -1.5 -3 4
      vertex -1.5 -2 3
      vertex -2 -2.5 4.25
    endloop
  endfacet
  facet normal 0.485071 0.727607 0.485071
    outer loop
      vertex -1.5 -2 3
      vertex -2.5 -2 4
      vertex -2 -2.5 4.25
    endloop
  endfacet
  facet normal 0.557086 0.742781 0.371391
    outer loop
      vertex -2.5 -2 4
      vertex -2.5 -3 6
      vertex -2 -2.5 4.25
    endloop
  endfacet
  facet normal 0.57735 0.57735 0.57735
    outer loop
      vertex -1.5 -3 4
      vertex -0.5 -3 3
      vertex -1 -2.5 3
    endloop
  endfacet
  facet normal 0.57735 0.57735 0.57735
    outer loop
      vertex -0.5 -3 3
      vertex -0.5 -2 2
      vertex -1 -2.5 3
    endloop
  endfacet
  facet normal 0.57735 0.57735 0.57735
    outer loop
      vertex -0.5 -2 2
      vertex -1.5 -2 3
      vertex -1 -2.5 3
    endloop
  endfacet
  facet normal 0.57735 0.57735 0.57735
    outer loop
      vertex -1.5 -2 3
      vertex -1.5 -3 4
      vertex -1 -2.5 3
    endloop
  endfacet
  facet normal 0.57735 0.57735 0.57735
    outer loop
      vertex -0.5 -3 3
      vertex 0.5 -3 2
      vertex 0 -2.5 2
    endloop
  endfacet
  facet normal 0.57735 0.57735 0.57735
    outer loop
      vertex 0.5 -3 2
      vertex 0.5 -2 1
      vertex 0 -2.5 2
    endloop
  endfacet
  facet normal 0.57735 0.57735 0.57735
    outer loop
      vertex 0.5 -2 1
      vertex -0.5 -2 2
      vertex 0 -2.5 2
    endloop
  endfacet
  facet normal 0.57735 0.57735 0.57735
    outer loop
      vertex -0.5 -2 2
      vertex -0.5 -3 3
      vertex 0 -2.5 2
    endloop
  endfacet
  facet normal 0.57735 0.57735 0.57735
    outer loop
      vertex 0.5 -3 2
      vertex 1.5 -3 1
      vertex 1 -2.5 1
    endloop
  endfacet
  facet normal 0.57735 0.57735 0.57735
    outer loop
      vertex 1.5 -3 1
      vertex 1.5 -2 0
      vertex 1 -2.5 1
    endloop
  endfacet
  facet normal 0.57735 0.57735 0.57735
    outer loop
      vertex 1.5 -2 0
      vertex 0.5 -2 1
      vertex 1 -2.5 1
    endloop
  endfacet
  facet normal 0.57735 0.57735 0.57735
    outer loop
      vertex 0.5 -2 1
      vertex 0.5 -3 2
      vertex 1 -2.5 1
    endloop
  endfacet
  facet normal 0.666667 0.333333 0.666667
    outer loop
      vertex 1.5 -3 1
      vertex 2.5 -3 0
      vertex 2 -2.5 0.25
    endloop
  endfacet
  facet normal 0.447214 -0 0.894427
    outer loop
      vertex 2.5 -3 0
      vertex 2.5 -2 0
      vertex 2 -2.5 0.25
    endloop
  endfacet
  facet normal 0 0.447214 0.894427
    outer loop
      vertex 2.5 -2 0
      vertex 1.5 -2 0
      vertex 2 -2.5 0.25
    endloop
  endfacet
  facet normal 0.333333 0.666667 0.666667
    outer loop
      vertex 1.5 -2 0
      vertex 1.5 -3 1
      vertex 2 -2.5 0.25
    endloop
  endfacet
  facet normal 0 0 1
    outer loop
      vertex 2.5 -3 0
      vertex 3.5 -3 0
      vertex 3 -2.5 0
    endloop
  endfacet
  facet normal 0 -0 1
    outer loop
      vertex 3.5 -3 0
      vertex 3.5 -2 0
      vertex 3 -2.5 0
    endloop
  endfacet
  facet normal 0 0 1
    outer loop
      vertex 3.5 -2 0
      vertex 2.5 -2 0
      vertex 3 -2.5 0
    endloop
  endfacet
  facet normal 0 0 1
    outer loop
      vertex 2.5 -2 0
      vertex 2.5 -3 0
      vertex 3 -2.5 0
    endloop
  endfacet
  facet normal 0 0 1
    outer loop
      vertex 3.5 -3 0
      vertex 4.5 -3 0
      vertex 4 -2.5 0
    endloop
  endfacet
  facet normal 0 -0 1
    outer loop
      vertex 4.5 -3 0
      vertex 4.5 -2 0
      vertex 4 -2.5 0
    endloop
  endfacet
  facet normal 0 0 1
    outer loop
      vertex 4.5 -2 0
      vertex 3.5 -2 0
      vertex 4 -2.5 0
    endloop
  endfacet
  facet normal 0 0 1
    outer loop
      vertex 3.5 -2 0
      vertex 3.5 -3 0
      vertex 4 -2.5 0
    endloop
  endfacet
  facet normal 0 0 1
    outer loop
      vertex 4.5 -3 0
      vertex 5.5 -3 0
      vertex 5 -2.5 0
    endloop
  endfacet
  facet normal 0 -0 1
    outer loop
      vertex 5.5 -3 0
      vertex 5.5 -2 0
      vertex 5 -2.5 0
    endloop
  endfacet
  facet normal 0 0 1
    outer loop
      vertex 5.5 -2 0
      vertex 4.5 -2 0
      vertex 5 -2.5 0
    endloop
  endfacet
  facet normal 0 0 1
    outer loop
      vertex 4.5 -2 0
      vertex 4.5 -3 0
      vertex 5 -2.5 0
    endloop
  endfacet
  facet normal 0.666667 0.333333 0.666667
    outer loop
      vertex -5.5 -2 7
      vertex -4.5 -2 6
      vertex -5 -1.5 6.25
    endloop
  endfacet
  facet normal 0.447214 -0 0.894427
    outer loop
      vertex -4.5 -2 6
      vertex -4.5 -1 6
      vertex -5 -1.5 6.25
    endloop
  endfacet
  facet normal 0 0.447214 0.894427
    outer loop
      vertex -4.5 -1 6
      vertex -5.5 -1 6
      vertex -5 -1.5 6.25
    endloop
  endfacet
  facet normal 0.333333 0.666667 0.666667
    outer loop
      vertex -5.5 -1 6
      vertex -5.5 -2 7
      vertex -5 -1.5 6.25
    endloop
  endfacet
  facet normal -0 0.707107 0.707107
    outer loop
      vertex -4.5 -2 6
      vertex -3.5 -2 6
      vertex -4 -1.5 5.5
    endloop
  endfacet
  facet normal 0.408248 0.816497 0.408248
    outer loop
      vertex -3.5 -2 6
      vertex -3.5 -1 4
      vertex -4 -1.5 5.5
    endloop
  endfacet
  facet normal 0.816497 0.408248 0.408248
    outer loop
      vertex -3.5 -1 4
      vertex -4.5 -1 6
      vertex -4 -1.5 5.5
    endloop
  endfacet
  facet normal 0.707107 0 0.707107
    outer loop
      vertex -4.5 -1 6
      vertex -4.5 -2 6
      vertex -4 -1.5 5.5
    endloop
  endfacet
  facet normal 0.742781 0.557086 0.371391
    outer loop
      vertex -3.5 -2 6
      vertex -2.5 -2 4
      vertex -3 -1.5 4.25
    endloop
  endfacet
  facet normal 0.727607 0.485071 0.485071
    outer loop
      vertex -2.5 -2 4
      vertex -2.5 -1 3
      vertex -3 -1.5 4.25
    endloop
  endfacet
  facet normal 0.485071 0.727607 0.485071
    outer loop
      vertex -2.5 -1 3
      vertex -3.5 -1 4
      vertex -3 -1.5 4.25
    endloop
  endfacet
  facet normal 0.557086 0.742781 0.371391
    outer loop
      vertex -3.5 -1 4
      vertex -3.5 -2 6
      vertex -3 -1.5 4.25
    endloop
  endfacet
  facet normal 0.57735 0.57735 0.57735
    outer loop
      vertex -2.5 -2 4
      vertex -1.5 -2 3
      vertex -2 -1.5 3
    endloop
  endfacet
  facet normal 0.57735 0.57735 0.57735
    outer loop
      vertex -1.5 -2 3
      vertex -1.5 -1 2
      vertex -2 -1.5 3
    endloop
  endfacet
  facet normal 0.57735 0.57735 0.57735
    outer loop
      vertex -1.5 -1 2
      vertex -2.5 -1 3
      vertex -2 -1.5 3
    endloop
  endfacet
  facet normal 0.57735 0.57735 0.57735
    outer loop
      vertex -2.5 -1 3
      vertex -2.5 -2 4
      vertex -2 -1.5 3
    endloop
  endfacet
  facet normal 0.57735 0.57735 0.57735
    outer loop
      vertex -1.5 -2 3
      vertex -0.5 -2 2
      vertex -1 -1.5 2
    endloop
  endfacet
  facet normal 0.57735 0.57735 0.57735
    outer loop
      vertex -0.5 -2 2
      vertex -0.5 -1 1
      vertex -1 -1.5 2
    endloop
  endfacet
  facet normal 0.57735 0.57735 0.57735
    outer loop
      vertex -0.5 -1 1
      vertex -1.5 -1 2
      vertex -1 -1.5 2
    endloop
  endfacet
  facet normal 0.57735 0.57735 0.57735
    outer loop
      vertex -1.5 -1 2
      vertex -1.5 -2 3
      vertex -1 -1.5 2
    endloop
  endfacet
  facet normal 0.666667 0.333333 0.666667
    outer loop
      vertex -0.5 -2 2
      vertex 0.5 -2 1
      vertex 0 -1.5 1.25
    endloop
  endfacet
  facet normal 0.447214 -0 0.894427
    outer loop
      vertex 0.5 -2 1
      vertex 0.5 -1 1
      vertex 0 -1.5 1.25
    endloop
  endfacet
  facet normal 0 0.447214 0.894427
    outer loop
      vertex 0.5 -1 1
      vertex -0.5 -1 1
      vertex 0 -1.5 1.25
    endloop
  endfacet
  facet normal 0.333333 0.666667 0.666667
    outer loop
      vertex -0.5 -1 1
      vertex -0.5 -2 2
      vertex 0 -1.5 1.25
    endloop
  endfacet
  facet normal 0.707107 0 0.707107
    outer loop
      vertex 0.5 -2 1
      vertex 1.5 -2 0
      vertex 1 -1.5 0.5
    endloop
  endfacet
  facet normal 0.707107 -0 0.707107
    outer loop
      vertex 1.5 -2 0
      vertex 1.5 -1 0
      vertex 1 -1.5 0.5
    endloop
  endfacet
  facet normal 0.707107 0 0.707107
    outer loop
      vertex 1.5 -1 0
      vertex 0.5 -1 1
      vertex 1 -1.5 0.5
    endloop
  endfacet
  facet normal 0.707107 0 0.707107
    outer loop
      vertex 0.5 -1 1
      vertex 0.5 -2 1
      vertex 1 -1.5 0.5
    endloop
  endfacet
  facet normal 0 0 1
    outer loop
      vertex 1.5 -2 0
      vertex 2.5 -2 0
      vertex 2 -1.5 0
    endloop
  endfacet
  facet normal 0 -0 1
    outer loop
      vertex 2.5 -2 0
      vertex 2.5 -1 0
      vertex 2 -1.5 0
    endloop
  endfacet
  facet normal 0 0 1
    outer loop
      vertex 2.5 -1 0
      vertex 1.5 -1 0
      vertex 2 -1.5 0
    endloop
  endfacet
  facet normal 0 0 1
    outer loop
      vertex 1.5 -1 0
      vertex 1.5 -2 0
      vertex 2 -1.5 0
    endloop
  endfacet
  facet normal 0 0 1
    outer loop
      vertex 2.5 -2 0
      vertex 3.5 -2 0
      vertex 3 -1.5 0
    endloop
  endfacet
  facet normal 0 -0 1
    outer loop
      vertex 3.5 -2 0
      vertex 3.5 -1 0
      vertex 3 -1.5 0
    endloop
  endfacet
  facet normal 0 0 1
    outer loop
      vertex 3.5 -1 0
      vertex 2.5 -1 0
      vertex 3 -1.5 0
    endloop
  endfacet
  facet normal 0 0 1
    outer loop
      vertex 2.5 -1 0
      vertex 2.5 -2 0
      vertex 3 -1.5 0
    endloop
  endfacet
  facet normal 0 0 1
    outer loop
      vertex 3.5 -2 0
      vertex 4.5 -2 0
      vertex 4 -1.5 0
    endloop
  endfacet
  facet normal 0 -0 1
    outer loop
      vertex 4.5 -2 0
      vertex 4.5 -1 0
      vertex 4 -1.5 0
    endloop
  endfacet
  facet normal 0 0 1
    outer loop
      vertex 4.5 -1 0
      vertex 3.5 -1 0
      vertex 4 -1.5 0
    endloop
  endfacet
  facet normal 0 0 1
    outer loop
      vertex 3.5 -1 0
      vertex 3.5 -2 0
      vertex 4 -1.5 0
    endloop
  endfacet
  facet normal 0 0 1
    outer loop
      vertex 4.5 -2 0
      vertex 5.5 -2 0
      vertex 5 -1.5 0
    endloop
  endfacet
  facet normal 0 -0 1
    outer loop
      vertex 5.5 -2 0
      vertex 5.5 -1 0
      vertex 5 -1.5 0
    endloop
  endfacet
  facet normal 0 0 1
    outer loop
      vertex 5.5 -1 0
      vertex 4.5 -1 0
      vertex 5 -1.5 0
    endloop
  endfacet
  facet normal 0 0 1
    outer loop
      vertex 4.5 -1 0
      vertex 4.5 -2 0
      vertex 5 -1.5 0
    endloop
  endfacet
  facet normal 0 0 1
    outer loop
      vertex -5.5 -1 6
      vertex -4.5 -1 6
      vertex -5 -0.5 6
    endloop
  endfacet
  facet normal 0 -0 1
    outer loop
      vertex -4.5 -1 6
      vertex -4.5 0 6
      vertex -5 -0.5 6
    endloop
  endfacet
  facet normal 0 0 1
    outer loop
      vertex -4.5 0 6
      vertex -5.5 0 6
      vertex -5 -0.5 6
    endloop
  endfacet
  facet normal 0 0 1
    outer loop
      vertex -5.5 0 6
      vertex -5.5 -1 6
      vertex -5 -0.5 6
    endloop
  endfacet
  facet normal 0.872872 0.218218 0.436436
    outer loop
      vertex -4.5 -1 6
      vertex -3.5 -1 4
      vertex -4 -0.5 4.75
    endloop
  endfacet
  facet normal 0.870388 0.348155 0.348155
    outer loop
      vertex -3.5 -1 4
      vertex -3.5 0 3
      vertex -4 -0.5 4.75
    endloop
  endfacet
  facet normal 0.937043 0.156174 0.312348
    outer loop
      vertex -3.5 0 3
      vertex -4.5 0 6
      vertex -4 -0.5 4.75
    endloop
  endfacet
  facet normal 0.928477 0 0.371391
    outer loop
      vertex -4.5 0 6
      vertex -4.5 -1 6
      vertex -4 -0.5 4.75
    endloop
  endfacet
  facet normal 0.57735 0.57735 0.57735
    outer loop
      vertex -3.5 -1 4
      vertex -2.5 -1 3
      vertex -3 -0.5 3
    endloop
  endfacet
  facet normal 0.57735 0.57735 0.57735
    outer loop
      vertex -2.5 -1 3
      vertex -2.5 0 2
      vertex -3 -0.5 3
    endloop
  endfacet
  facet normal 0.57735 0.57735 0.57735
    outer loop
      vertex -2.5 0 2
      vertex -3.5 0 3
      vertex -3 -0.5 3
    endloop
  endfacet
  facet normal 0.57735 0.57735 0.57735
    outer loop
      vertex -3.5 0 3
      vertex -3.5 -1 4
      vertex -3 -0.5 3
    endloop
  endfacet
  facet normal 0.57735 0.57735 0.57735
    outer loop
      vertex -2.5 -1 3
      vertex -1.5 -1 2
      vertex -2 -0.5 2
    endloop
  endfacet
  facet normal 0.57735 0.57735 0.57735
    outer loop
      vertex -1.5 -1 2
      vertex -1.5 0 1
      vertex -2 -0.5 2
    endloop
  endfacet
  facet normal 0.57735 0.57735 0.57735
    outer loop
      vertex -1.5 0 1
      vertex -2.5 0 2
      vertex -2 -0.5 2
    endloop
  endfacet
  facet normal 0.57735 0.57735 0.57735
    outer loop
      vertex -2.5 0 2
      vertex -2.5 -1 3
      vertex -2 -0.5 2
    endloop
  endfacet
  facet normal 0.666667 0.333333 0.666667
    outer loop
      vertex -1.5 -1 2
      vertex -0.5 -1 1
      vertex -1 -0.5 1.25
    endloop
  endfacet
  facet normal 0.447214 -0 0.894427
    outer loop
      vertex -0.5 -1 1
      vertex -0.5 0 1
      vertex -1 -0.5 1.25
    endloop
  endfacet
  facet normal 0 0.447214 0.894427
    outer loop
      vertex -0.5 0 1
      vertex -1.5 0 1
      vertex -1 -0.5 1.25
    endloop
  endfacet
  facet normal 0.333333 0.666667 0.666667
    outer loop
      vertex -1.5 0 1
      vertex -1.5 -1 2
      vertex -1 -0.5 1.25
    endloop
  endfacet
  facet normal 0 0 1
    outer loop
      vertex -0.5 -1 1
      vertex 0.5 -1 1
      vertex 0 -0.5 1
    endloop
  endfacet
  facet normal 0 -0 1
    outer loop
      vertex 0.5 -1 1
      vertex 0.5 0 1
      vertex 0 -0.5 1
    endloop
  endfacet
  facet normal 0 0 1
    outer loop
      vertex 0.5 0 1
      vertex -0.5 0 1
      vertex 0 -0.5 1
    endloop
  endfacet
  facet normal 0 0 1
    outer loop
      vertex -0.5 0 1
      vertex -0.5 -1 1
      vertex 0 -0.5 1
    endloop
  endfacet
  facet normal 0.666667 -0.333333 0.666667
    outer loop
      vertex 0.5 -1 1
      vertex 1.5 -1 0
      vertex 1 -0.5 0.75
    endloop
  endfacet
  facet normal 0.333333 -0.666667 0.666667
    outer loop
      vertex 1.5 -1 0
      vertex 1.5 0 1
      vertex 1 -0.5 0.75
    endloop
  endfacet
  facet normal 0 -0.447214 0.894427
    outer loop
      vertex 1.5 0 1
      vertex 0.5 0 1
      vertex 1 -0.5 0.75
    endloop
  endfacet
  facet normal 0.447214 0 0.894427
    outer loop
      vertex 0.5 0 1
      vertex 0.5 -1 1
      vertex 1 -0.5 0.75
    endloop
  endfacet
  facet normal 0 -0.707107 0.707107
    outer loop
      vertex 1.5 -1 0
      vertex 2.5 -1 0
      vertex 2 -0.5 0.5
    endloop
  endfacet
  facet normal 0 -0.707107 0.707107
    outer loop
      vertex 2.5 -1 0
      vertex 2.5 0 1
      vertex 2 -0.5 0.5
    endloop
  endfacet
  facet normal 0 -0.707107 0.707107
    outer loop
      vertex 2.5 0 1
      vertex 1.5 0 1
      vertex 2 -0.5 0.5
    endloop
  endfacet
  facet normal 0 -0.707107 0.707107
    outer loop
      vertex 1.5 0 1
      vertex 1.5 -1 0
      vertex 2 -0.5 0.5
    endloop
  endfacet
  facet normal 0 -0.707107 0.707107
    outer loop
      vertex 2.5 -1 0
      vertex 3.5 -1 0
      vertex 3 -0.5 0.5
    endloop
  endfacet
  facet normal 0 -0.707107 0.707107
    outer loop
      vertex 3.5 -1 0
      vertex 3.5 0 1
      vertex 3 -0.5 0.5
    endloop
  endfacet
  facet normal 0 -0.707107 0.707107
    outer loop
      vertex 3.5 0 1
      vertex 2.5 0 1
      vertex 3 -0.5 0.5
    endloop
  endfacet
  facet normal 0 -0.707107 0.707107
    outer loop
      vertex 2.5 0 1
      vertex 2.5 -1 0
      vertex 3 -0.5 0.5
    endloop
  endfacet
  facet normal 0 -0.447214 0.894427
    outer loop
      vertex 3.5 -1 0
      vertex 4.5 -1 0
      vertex 4 -0.5 0.25
    endloop
  endfacet
  facet normal 0.447214 -0 0.894427
    outer loop
      vertex 4.5 -1 0
      vertex 4.5 0 0
      vertex 4 -0.5 0.25
    endloop
  endfacet
  facet normal 0.666667 -0.333333 0.666667
    outer loop
      vertex 4.5 0 0
      vertex 3.5 0 1
      vertex 4 -0.5 0.25
    endloop
  endfacet
  facet normal 0.333333 -0.666667 0.666667
    outer loop
      vertex 3.5 0 1
      vertex 3.5 -1 0
      vertex 4 -0.5 0.25
    endloop
  endfacet
  facet normal 0 0 1
    outer loop
      vertex 4.5 -1 0
      vertex 5.5 -1 0
      vertex 5 -0.5 0
    endloop
  endfacet
  facet normal 0 -0 1
    outer loop
      vertex 5.5 -1 0
      vertex 5.5 0 0
      vertex 5 -0.5 0
    endloop
  endfacet
  facet normal 0 0 1
    outer loop
      vertex 5.5 0 0
      vertex 4.5 0 0
      vertex 5 -0.5 0
    endloop
  endfacet
  facet normal 0 0 1
    outer loop
      vertex 4.5 0 0
      vertex 4.5 -1 0
      vertex 5 -0.5 0
    endloop
  endfacet
  facet normal 0 0 1
    outer loop
      vertex -5.5 0 6
      vertex -4.5 0 6
      vertex -5 0.5 6
    endloop
  endfacet
  facet normal 0 -0 1
    outer loop
      vertex -4.5 0 6
      vertex -4.5 1 6
      vertex -5 0.5 6
    endloop
  endfacet
  facet normal 0 0 1
    outer loop
      vertex -4.5 1 6
      vertex -5.5 1 6
      vertex -5 0.5 6
    endloop
  endfacet
  facet normal 0 0 1
    outer loop
      vertex -5.5 1 6
      vertex -5.5 0 6
      vertex -5 0.5 6
    endloop
  endfacet
  facet normal 0.937043 0.156174 0.312348
    outer loop
      vertex -4.5 0 6
      vertex -3.5 0 3
      vertex -4 0.5 4.25
    endloop
  endfacet
  facet normal 0.927173 0.264906 0.264906
    outer loop
      vertex -3.5 0 3
      vertex -3.5 1 2
      vertex -4 0.5 4.25
    endloop
  endfacet
  facet normal 0.963087 0.120386 0.240772
    outer loop
      vertex -3.5 1 2
      vertex -4.5 1 6
      vertex -4 0.5 4.25
    endloop
  endfacet
  facet normal 0.961524 0 0.274721
    outer loop
      vertex -4.5 1 6
      vertex -4.5 0 6
      vertex -4 0.5 4.25
    endloop
  endfacet
  facet normal 0.57735 0.57735 0.57735
    outer loop
      vertex -3.5 0 3
      vertex -2.5 0 2
      vertex -3 0.5 2
    endloop
  endfacet
  facet normal 0.57735 0.57735 0.57735
    outer loop
      vertex -2.5 0 2
      vertex -2.5 1 1
      vertex -3 0.5 2
    endloop
  endfacet
  facet normal 0.57735 0.57735 0.57735
    outer loop
      vertex -2.5 1 1
      vertex -3.5 1 2
      vertex -3 0.5 2
    endloop
  endfacet
  facet normal 0.57735 0.57735 0.57735
    outer loop
      vertex -3.5 1 2
      vertex -3.5 0 3
      vertex -3 0.5 2
    endloop
  endfacet
  facet normal 0.666667 0.333333 0.666667
    outer loop
      vertex -2.5 0 2
      vertex -1.5 0 1
      vertex -2 0.5 1.25
    endloop
  endfacet
  facet normal 0.447214 -0 0.894427
    outer loop
      vertex -1.5 0 1
      vertex -1.5 1 1
      vertex -2 0.5 1.25
    endloop
  endfacet
  facet normal 0 0.447214 0.894427
    outer loop
      vertex -1.5 1 1
      vertex -2.5 1 1
      vertex -2 0.5 1.25
    endloop
  endfacet
  facet normal 0.333333 0.666667 0.666667
    outer loop
      vertex -2.5 1 1
      vertex -2.5 0 2
      vertex -2 0.5 1.25
    endloop
  endfacet
  facet normal 0 0 1
    outer loop
      vertex -1.5 0 1
      vertex -0.5 0 1
      vertex -1 0.5 1
    endloop
  endfacet
  facet normal 0 -0 1
    outer loop
      vertex -0.5 0 1
      vertex -0.5 1 1
      vertex -1 0.5 1
    endloop
  endfacet
  facet normal 0 0 1
    outer loop
      vertex -0.5 1 1
      vertex -1.5 1 1
      vertex -1 0.5 1
    endloop
  endfacet
  facet normal 0 0 1
    outer loop
      vertex -1.5 1 1
      vertex -1.5 0 1
      vertex -1 0.5 1
    endloop
  endfacet
  facet normal 0 -0.447214 0.894427
    outer loop
      vertex -0.5 0 1
      vertex 0.5 0 1
      vertex 0 0.5 1.25
    endloop
  endfacet
  facet normal -0.333333 -0.666667 0.666667
    outer loop
      vertex 0.5 0 1
      vertex 0.5 1 2
      vertex 0 0.5 1.25
    endloop
  endfacet
  facet normal -0.666667 -0.333333 0.666667
    outer loop
      vertex 0.5 1 2
      vertex -0.5 1 1
      vertex 0 0.5 1.25
    endloop
  endfacet
  facet normal -0.447214 0 0.894427
    outer loop
      vertex -0.5 1 1
      vertex -0.5 0 1
      vertex 0 0.5 1.25
    endloop
  endfacet
  facet normal 0 -0.707107 0.707107
    outer loop
      vertex 0.5 0 1
      vertex 1.5 0 1
      vertex 1 0.5 1.5
    endloop
  endfacet
  facet normal 0 -0.707107 0.707107
    outer loop
      vertex 1.5 0 1
      vertex 1.5 1 2
      vertex 1 0.5 1.5
    endloop
  endfacet
  facet normal 0 -0.707107 0.707107
    outer loop
      vertex 1.5 1 2
      vertex 0.5 1 2
      vertex 1 0.5 1.5
    endloop
  endfacet
  facet normal 0 -0.707107 0.707107
    outer loop
      vertex 0.5 1 2
      vertex 0.5 0 1
      vertex 1 0.5 1.5
    endloop
  endfacet
  facet normal 0 -0.707107 0.707107
    outer loop
      vertex 1.5 0 1
      vertex 2.5 0 1
      vertex 2 0.5 1.5
    endloop
  endfacet
  facet normal 0 -0.707107 0.707107
    outer loop
      vertex 2.5 0 1
      vertex 2.5 1 2
      vertex 2 0.5 1.5
    endloop
  endfacet
  facet normal 0 -0.707107 0.707107
    outer loop
      vertex 2.5 1 2
      vertex 1.5 1 2
      vertex 2 0.5 1.5
    endloop
  endfacet
  facet normal 0 -0.707107 0.707107
    outer loop
      vertex 1.5 1 2
      vertex 1.5 0 1
      vertex 2 0.5 1.5
    endloop
  endfacet
  facet normal 0 -0.707107 0.707107
    outer loop
      vertex 2.5 0 1
      vertex 3.5 0 1
      vertex 3 0.5 1.5
    endloop
  endfacet
  facet normal 0 -0.707107 0.707107
    outer loop
      vertex 3.5 0 1
      vertex 3.5 1 2
      vertex 3 0.5 1.5
    endloop
  endfacet
  facet normal 0 -0.707107 0.707107
    outer loop
      vertex 3.5 1 2
      vertex 2.5 1 2
      vertex 3 0.5 1.5
    endloop
  endfacet
  facet normal 0 -0.707107 0.707107
    outer loop
      vertex 2.5 1 2
      vertex 2.5 0 1
      vertex 3 0.5 1.5
    endloop
  endfacet
  facet normal 0.666667 -0.333333 0.666667
    outer loop
      vertex 3.5 0 1
      vertex 4.5 0 0
      vertex 4 0.5 0.75
    endloop
  endfacet
  facet normal 0.83205 -0 0.5547
    outer loop
      vertex 4.5 0 0
      vertex 4.5 1 0
      vertex 4 0.5 0.75
    endloop
  endfacet
  facet normal 0.872872 -0.218218 0.436436
    outer loop
      vertex 4.5 1 0
      vertex 3.5 1 2
      vertex 4 0.5 0.75
    endloop
  endfacet
  facet normal 0.727607 -0.485071 0.485071
    outer loop
      vertex 3.5 1 2
      vertex 3.5 0 1
      vertex 4 0.5 0.75
    endloop
  endfacet
  facet normal 0 0 1
    outer loop
      vertex 4.5 0 0
      vertex 5.5 0 0
      vertex 5 0.5 0
    endloop
  endfacet
  facet normal 0 -0 1
    outer loop
      vertex 5.5 0 0
      vertex 5.5 1 0
      vertex 5 0.5 0
    endloop
  endfacet
  facet normal 0 0 1
    outer loop
      vertex 5.5 1 0
      vertex 4.5 1 0
      vertex 5 0.5 0
    endloop
  endfacet
  facet normal 0 0 1
    outer loop
      vertex 4.5 1 0
      vertex 4.5 0 0
      vertex 5 0.5 0
    endloop
  endfacet
  facet normal 0 0 1
    outer loop
      vertex -5.5 1 6
      vertex -4.5 1 6
      vertex -5 1.5 6
    endloop
  endfacet
  facet normal 0 -0 1
    outer loop
      vertex -4.5 1 6
      vertex -4.5 2 6
      vertex -5 1.5 6
    endloop
  endfacet
  facet normal 0 0 1
    outer loop
      vertex -4.5 2 6
      vertex -5.5 2 6
      vertex -5 1.5 6
    endloop
  endfacet
  facet normal 0 0 1
    outer loop
      vertex -5.5 2 6
      vertex -5.5 1 6
      vertex -5 1.5 6
    endloop
  endfacet
  facet normal 0.963087 0.120386 0.240772
    outer loop
      vertex -4.5 1 6
      vertex -3.5 1 2
      vertex -4 1.5 3.75
    endloop
  endfacet
  facet normal 0.953998 0.212 0.212
    outer loop
      vertex -3.5 1 2
      vertex -3.5 2 1
      vertex -4 1.5 3.75
    endloop
  endfacet
  facet normal 0.9759 0.09759 0.19518
    outer loop
      vertex -3.5 2 1
      vertex -4.5 2 6
      vertex -4 1.5 3.75
    endloop
  endfacet
  facet normal 0.976187 0 0.21693
    outer loop
      vertex -4.5 2 6
      vertex -4.5 1 6
      vertex -4 1.5 3.75
    endloop
  endfacet
  facet normal 0.57735 0.57735 0.57735
    outer loop
      vertex -3.5 1 2
      vertex -2.5 1 1
      vertex -3 1.5 1
    endloop
  endfacet
  facet normal 0.57735 0.57735 0.57735
    outer loop
      vertex -2.5 1 1
      vertex -2.5 2 0
      vertex -3 1.5 1
    endloop
  endfacet
  facet normal 0.57735 0.57735 0.57735
    outer loop
      vertex -2.5 2 0
      vertex -3.5 2 1
      vertex -3 1.5 1
    endloop
  endfacet
  facet normal 0.57735 0.57735 0.57735
    outer loop
      vertex -3.5 2 1
      vertex -3.5 1 2
      vertex -3 1.5 1
    endloop
  endfacet
  facet normal -0 0.707107 0.707107
    outer loop
      vertex -2.5 1 1
      vertex -1.5 1 1
      vertex -2 1.5 0.5
    endloop
  endfacet
  facet normal 0 0.707107 0.707107
    outer loop
      vertex -1.5 1 1
      vertex -1.5 2 0
      vertex -2 1.5 0.5
    endloop
  endfacet
  facet normal 0 0.707107 0.707107
    outer loop
      vertex -1.5 2 0
      vertex -2.5 2 0
      vertex -2 1.5 0.5
    endloop
  endfacet
  facet normal 0 0.707107 0.707107
    outer loop
      vertex -2.5 2 0
      vertex -2.5 1 1
      vertex -2 1.5 0.5
    endloop
  endfacet
  facet normal -0 0.447214 0.894427
    outer loop
      vertex -1.5 1 1
      vertex -0.5 1 1
      vertex -1 1.5 0.75
    endloop
  endfacet
  facet normal -0.447214 0 0.894427
    outer loop
      vertex -0.5 1 1
      vertex -0.5 2 1
      vertex -1 1.5 0.75
    endloop
  endfacet
  facet normal -0.666667 0.333333 0.666667
    outer loop
      vertex -0.5 2 1
      vertex -1.5 2 0
      vertex -1 1.5 0.75
    endloop
  endfacet
  facet normal -0.333333 0.666667 0.666667
    outer loop
      vertex -1.5 2 0
      vertex -1.5 1 1
      vertex -1 1.5 0.75
    endloop
  endfacet
  facet normal -0.707107 0 0.707107
    outer loop
      vertex -0.5 1 1
      vertex 0.5 1 2
      vertex 0 1.5 1.5
    endloop
  endfacet
  facet normal -0.707107 0 0.707107
    outer loop
      vertex 0.5 1 2
      vertex 0.5 2 2
      vertex 0 1.5 1.5
    endloop
  endfacet
  facet normal -0.707107 0 0.707107
    outer loop
      vertex 0.5 2 2
      vertex -0.5 2 1
      vertex 0 1.5 1.5
    endloop
  endfacet
  facet normal -0.707107 0 0.707107
    outer loop
      vertex -0.5 2 1
      vertex -0.5 1 1
      vertex 0 1.5 1.5
    endloop
  endfacet
  facet normal 0 -0.447214 0.894427
    outer loop
      vertex 0.5 1 2
      vertex 1.5 1 2
      vertex 1 1.5 2.25
    endloop
  endfacet
  facet normal -0.333333 -0.666667 0.666667
    outer loop
      vertex 1.5 1 2
      vertex 1.5 2 3
      vertex 1 1.5 2.25
    endloop
  endfacet
  facet normal -0.666667 -0.333333 0.666667
    outer loop
      vertex 1.5 2 3
      vertex 0.5 2 2
      vertex 1 1.5 2.25
    endloop
  endfacet
  facet normal -0.447214 0 0.894427
    outer loop
      vertex 0.5 2 2
      vertex 0.5 1 2
      vertex 1 1.5 2.25
    endloop
  endfacet
  facet normal 0 -0.707107 0.707107
    outer loop
      vertex 1.5 1 2
      vertex 2.5 1 2
      vertex 2 1.5 2.5
    endloop
  endfacet
  facet normal 0 -0.707107 0.707107
    outer loop
      vertex 2.5 1 2
      vertex 2.5 2 3
      vertex 2 1.5 2.5
    endloop
  endfacet
  facet normal 0 -0.707107 0.707107
    outer loop
      vertex 2.5 2 3
      vertex 1.5 2 3
      vertex 2 1.5 2.5
    endloop
  endfacet
  facet normal 0 -0.707107 0.707107
    outer loop
      vertex 1.5 2 3
      vertex 1.5 1 2
      vertex 2 1.5 2.5
    endloop
  endfacet
  facet normal 0 -0.707107 0.707107
    outer loop
      vertex 2.5 1 2
      vertex 3.5 1 2
      vertex 3 1.5 2.5
    endloop
  endfacet
  facet normal 0 -0.707107 0.707107
    outer loop
      vertex 3.5 1 2
      vertex 3.5 2 3
      vertex 3 1.5 2.5
    endloop
  endfacet
  facet normal 0 -0.707107 0.707107
    outer loop
      vertex 3.5 2 3
      vertex 2.5 2 3
      vertex 3 1.5 2.5
    endloop
  endfacet
  facet normal 0 -0.707107 0.707107
    outer loop
      vertex 2.5 2 3
      vertex 2.5 1 2
      vertex 3 1.5 2.5
    endloop
  endfacet
  facet normal 0.872872 -0.218218 0.436436
    outer loop
      vertex 3.5 1 2
      vertex 4.5 1 0
      vertex 4 1.5 1.25
    endloop
  endfacet
  facet normal 0.928477 -0 0.371391
    outer loop
      vertex 4.5 1 0
      vertex 4.5 2 0
      vertex 4 1.5 1.25
    endloop
  endfacet
  facet normal 0.937043 -0.156174 0.312348
    outer loop
      vertex 4.5 2 0
      vertex 3.5 2 3
      vertex 4 1.5 1.25
    endloop
  endfacet
  facet normal 0.870388 -0.348155 0.348155
    outer loop
      vertex 3.5 2 3
      vertex 3.5 1 2
      vertex 4 1.5 1.25
    endloop
  endfacet
  facet normal 0 0 1
    outer loop
      vertex 4.5 1 0
      vertex 5.5 1 0
      vertex 5 1.5 0
    endloop
  endfacet
  facet normal 0 -0 1
    outer loop
      vertex 5.5 1 0
      vertex 5.5 2 0
      vertex 5 1.5 0
    endloop
  endfacet
  facet normal 0 0 1
    outer loop
      vertex 5.5 2 0
      vertex 4.5 2 0
      vertex 5 1.5 0
    endloop
  endfacet
  facet normal 0 0 1
    outer loop
      vertex 4.5 2 0
      vertex 4.5 1 0
      vertex 5 1.5 0
    endloop
  endfacet
  facet normal -0 0.970143 0.242536
    outer loop
      vertex -5.5 2 6
      vertex -4.5 2 6
      vertex -5 2.5 4
    endloop
  endfacet
  facet normal 0.19245 0.96225 0.19245
    outer loop
      vertex -4.5 2 6
      vertex -4.5 3 1
      vertex -5 2.5 4
    endloop
  endfacet
  facet normal 0.436436 0.872872 0.218218
    outer loop
      vertex -4.5 3 1
      vertex -5.5 3 3
      vertex -5 2.5 4
    endloop
  endfacet
  facet normal 0.301511 0.904534 0.301511
    outer loop
      vertex -5.5 3 3
      vertex -5.5 2 6
      vertex -5 2.5 4
    endloop
  endfacet
  facet normal 0.845154 0.507093 0.169031
    outer loop
      vertex -4.5 2 6
      vertex -3.5 2 1
      vertex -4 2.5 2
    endloop
  endfacet
  facet normal 0.904534 0.301511 0.301511
    outer loop
      vertex -3.5 2 1
      vertex -3.5 3 0
      vertex -4 2.5 2
    endloop
  endfacet
  facet normal 0.301511 0.904534 0.301511
    outer loop
      vertex -3.5 3 0
      vertex -4.5 3 1
      vertex -4 2.5 2
    endloop
  endfacet
  facet normal 0.507093 0.845154 0.169031
    outer loop
      vertex -4.5 3 1
      vertex -4.5 2 6
      vertex -4 2.5 2
    endloop
  endfacet
  facet normal 0.666667 0.333333 0.666667
    outer loop
      vertex -3.5 2 1
      vertex -2.5 2 0
      vertex -3 2.5 0.25
    endloop
  endfacet
  facet normal 0.447214 -0 0.894427
    outer loop
      vertex -2.5 2 0
      vertex -2.5 3 0
      vertex -3 2.5 0.25
    endloop
  endfacet
  facet normal 0 0.447214 0.894427
    outer loop
      vertex -2.5 3 0
      vertex -3.5 3 0
      vertex -3 2.5 0.25
    endloop
  endfacet
  facet normal 0.333333 0.666667 0.666667
    outer loop
      vertex -3.5 3 0
      vertex -3.5 2 1
      vertex -3 2.5 0.25
    endloop
  endfacet
  facet normal 0 0 1
    outer loop
      vertex -2.5 2 0
      vertex -1.5 2 0
      vertex -2 2.5 0
    endloop
  endfacet
  facet normal 0 -0 1
    outer loop
      vertex -1.5 2 0
      vertex -1.5 3 0
      vertex -2 2.5 0
    endloop
  endfacet
  facet normal 0 0 1
    outer loop
      vertex -1.5 3 0
      vertex -2.5 3 0
      vertex -2 2.5 0
    endloop
  endfacet
  facet normal 0 0 1
    outer loop
      vertex -2.5 3 0
      vertex -2.5 2 0
      vertex -2 2.5 0
    endloop
  endfacet
  facet normal -0.707107 0 0.707107
    outer loop
      vertex -1.5 2 0
      vertex -0.5 2 1
      vertex -1 2.5 0.5
    endloop
  endfacet
  facet normal -0.707107 0 0.707107
    outer loop
      vertex -0.5 2 1
      vertex -0.5 3 1
      vertex -1 2.5 0.5
    endloop
  endfacet
  facet normal -0.707107 0 0.707107
    outer loop
      vertex -0.5 3 1
      vertex -1.5 3 0
      vertex -1 2.5 0.5
    endloop
  endfacet
  facet normal -0.707107 0 0.707107
    outer loop
      vertex -1.5 3 0
      vertex -1.5 2 0
      vertex -1 2.5 0.5
    endloop
  endfacet
  facet normal -0.707107 0 0.707107
    outer loop
      vertex -0.5 2 1
      vertex 0.5 2 2
      vertex 0 2.5 1.5
    endloop
  endfacet
  facet normal -0.707107 0 0.707107
    outer loop
      vertex 0.5 2 2
      vertex 0.5 3 2
      vertex 0 2.5 1.5
    endloop
  endfacet
  facet normal -0.707107 0 0.707107
    outer loop
      vertex 0.5 3 2
      vertex -0.5 3 1
      vertex 0 2.5 1.5
    endloop
  endfacet
  facet normal -0.707107 0 0.707107
    outer loop
      vertex -0.5 3 1
      vertex -0.5 2 1
      vertex 0 2.5 1.5
    endloop
  endfacet
  facet normal -0.707107 0 0.707107
    outer loop
      vertex 0.5 2 2
      vertex 1.5 2 3
      vertex 1 2.5 2.5
    endloop
  endfacet
  facet normal -0.707107 0 0.707107
    outer loop
      vertex 1.5 2 3
      vertex 1.5 3 3
      vertex 1 2.5 2.5
    endloop
  endfacet
  facet normal -0.707107 0 0.707107
    outer loop
      vertex 1.5 3 3
      vertex 0.5 3 2
      vertex 1 2.5 2.5
    endloop
  endfacet
  facet normal -0.707107 0 0.707107
    outer loop
      vertex 0.5 3 2
      vertex 0.5 2 2
      vertex 1 2.5 2.5
    endloop
  endfacet
  facet normal 0 -0.447214 0.894427
    outer loop
      vertex 1.5 2 3
      vertex 2.5 2 3
      vertex 2 2.5 3.25
    endloop
  endfacet
  facet normal -0.333333 -0.666667 0.666667
    outer loop
      vertex 2.5 2 3
      vertex 2.5 3 4
      vertex 2 2.5 3.25
    endloop
  endfacet
  facet normal -0.666667 -0.333333 0.666667
    outer loop
      vertex 2.5 3 4
      vertex 1.5 3 3
      vertex 2 2.5 3.25
    endloop
  endfacet
  facet normal -0.447214 0 0.894427
    outer loop
      vertex 1.5 3 3
      vertex 1.5 2 3
      vertex 2 2.5 3.25
    endloop
  endfacet
  facet normal 0 -0.707107 0.707107
    outer loop
      vertex 2.5 2 3
      vertex 3.5 2 3
      vertex 3 2.5 3.5
    endloop
  endfacet
  facet normal 0 -0.707107 0.707107
    outer loop
      vertex 3.5 2 3
      vertex 3.5 3 4
      vertex 3 2.5 3.5
    endloop
  endfacet
  facet normal 0 -0.707107 0.707107
    outer loop
      vertex 3.5 3 4
      vertex 2.5 3 4
      vertex 3 2.5 3.5
    endloop
  endfacet
  facet normal 0 -0.707107 0.707107
    outer loop
      vertex 2.5 3 4
      vertex 2.5 2 3
      vertex 3 2.5 3.5
    endloop
  endfacet
  facet normal 0.937043 -0.156174 0.312348
    outer loop
      vertex 3.5 2 3
      vertex 4.5 2 0
      vertex 4 2.5 1.75
    endloop
  endfacet
  facet normal 0.961524 -0 0.274721
    outer loop
      vertex 4.5 2 0
      vertex 4.5 3 0
      vertex 4 2.5 1.75
    endloop
  endfacet
  facet normal 0.963087 -0.120386 0.240772
    outer loop
      vertex 4.5 3 0
      vertex 3.5 3 4
      vertex 4 2.5 1.75
    endloop
  endfacet
  facet normal 0.927173 -0.264906 0.264906
    outer loop
      vertex 3.5 3 4
      vertex 3.5 2 3
      vertex 4 2.5 1.75
    endloop
  endfacet
  facet normal 0 0 1
    outer loop
      vertex 4.5 2 0
      vertex 5.5 2 0
      vertex 5 2.5 0
    endloop
  endfacet
  facet normal 0 -0 1
    outer loop
      vertex 5.5 2 0
      vertex 5.5 3 0
      vertex 5 2.5 0
    endloop
  endfacet
  facet normal 0 0 1
    outer loop
      vertex 5.5 3 0
      vertex 4.5 3 0
      vertex 5 2.5 0
    endloop
  endfacet
  facet normal 0 0 1
    outer loop
      vertex 4.5 3 0
      vertex 4.5 2 0
      vertex 5 2.5 0
    endloop
  endfacet
  facet normal 0.872872 0.218218 0.436436
    outer loop
      vertex -5.5 3 3
      vertex -4.5 3 1
      vertex -5 3.5 1.75
    endloop
  endfacet
  facet normal 0.870388 0.348155 0.348155
    outer loop
      vertex -4.5 3 1
      vertex -4.5 4 0
      vertex -5 3.5 1.75
    endloop
  endfacet
  facet normal 0.937043 0.156174 0.312348
    outer loop
      vertex -4.5 4 0
      vertex -5.5 4 3
      vertex -5 3.5 1.75
    endloop
  endfacet
  facet normal 0.928477 0 0.371391
    outer loop
      vertex -5.5 4 3
      vertex -5.5 3 3
      vertex -5 3.5 1.75
    endloop
  endfacet
  facet normal 0.666667 0.333333 0.666667
    outer loop
      vertex -4.5 3 1
      vertex -3.5 3 0
      vertex -4 3.5 0.25
    endloop
  endfacet
  facet normal 0.447214 -0 0.894427
    outer loop
      vertex -3.5 3 0
      vertex -3.5 4 0
      vertex -4 3.5 0.25
    endloop
  endfacet
  facet normal 0 0.447214 0.894427
    outer loop
      vertex -3.5 4 0
      vertex -4.5 4 0
      vertex -4 3.5 0.25
    endloop
  endfacet
  facet normal 0.333333 0.666667 0.666667
    outer loop
      vertex -4.5 4 0
      vertex -4.5 3 1
      vertex -4 3.5 0.25
    endloop
  endfacet
  facet normal 0 0 1
    outer loop
      vertex -3.5 3 0
      vertex -2.5 3 0
      vertex -3 3.5 0
    endloop
  endfacet
  facet normal 0 -0 1
    outer loop
      vertex -2.5 3 0
      vertex -2.5 4 0
      vertex -3 3.5 0
    endloop
  endfacet
  facet normal 0 0 1
    outer loop
      vertex -2.5 4 0
      vertex -3.5 4 0
      vertex -3 3.5 0
    endloop
  endfacet
  facet normal 0 0 1
    outer loop
      vertex -3.5 4 0
      vertex -3.5 3 0
      vertex -3 3.5 0
    endloop
  endfacet
  facet normal 0 0 1
    outer loop
      vertex -2.5 3 0
      vertex -1.5 3 0
      vertex -2 3.5 0
    endloop
  endfacet
  facet normal 0 -0 1
    outer loop
      vertex -1.5 3 0
      vertex -1.5 4 0
      vertex -2 3.5 0
    endloop
  endfacet
  facet normal 0 0 1
    outer loop
      vertex -1.5 4 0
      vertex -2.5 4 0
      vertex -2 3.5 0
    endloop
  endfacet
  facet normal 0 0 1
    outer loop
      vertex -2.5 4 0
      vertex -2.5 3 0
      vertex -2 3.5 0
    endloop
  endfacet
  facet normal -0.707107 0 0.707107
    outer loop
      vertex -1.5 3 0
      vertex -0.5 3 1
      vertex -1 3.5 0.5
    endloop
  endfacet
  facet normal -0.707107 0 0.707107
    outer loop
      vertex -0.5 3 1
      vertex -0.5 4 1
      vertex -1 3.5 0.5
    endloop
  endfacet
  facet normal -0.707107 0 0.707107
    outer loop
      vertex -0.5 4 1
      vertex -1.5 4 0
      vertex -1 3.5 0.5
    endloop
  endfacet
  facet normal -0.707107 0 0.707107
    outer loop
      vertex -1.5 4 0
      vertex -1.5 3 0
      vertex -1 3.5 0.5
    endloop
  endfacet
  facet normal -0.707107 0 0.707107
    outer loop
      vertex -0.5 3 1
      vertex 0.5 3 2
      vertex 0 3.5 1.5
    endloop
  endfacet
  facet normal -0.707107 0 0.707107
    outer loop
      vertex 0.5 3 2
      vertex 0.5 4 2
      vertex 0 3.5 1.5
    endloop
  endfacet
  facet normal -0.707107 0 0.707107
    outer loop
      vertex 0.5 4 2
      vertex -0.5 4 1
      vertex 0 3.5 1.5
    endloop
  endfacet
  facet normal -0.707107 0 0.707107
    outer loop
      vertex -0.5 4 1
      vertex -0.5 3 1
      vertex 0 3.5 1.5
    endloop
  endfacet
  facet normal -0.707107 0 0.707107
    outer loop
      vertex 0.5 3 2
      vertex 1.5 3 3
      vertex 1 3.5 2.5
    endloop
  endfacet
  facet normal -0.707107 0 0.707107
    outer loop
      vertex 1.5 3 3
      vertex 1.5 4 3
      vertex 1 3.5 2.5
    endloop
  endfacet
  facet normal -0.707107 0 0.707107
    outer loop
      vertex 1.5 4 3
      vertex 0.5 4 2
      vertex 1 3.5 2.5
    endloop
  endfacet
  facet normal -0.707107 0 0.707107
    outer loop
      vertex 0.5 4 2
      vertex 0.5 3 2
      vertex 1 3.5 2.5
    endloop
  endfacet
  facet normal -0.707107 0 0.707107
    outer loop
      vertex 1.5 3 3
      vertex 2.5 3 4
      vertex 2 3.5 3.5
    endloop
  endfacet
  facet normal -0.707107 0 0.707107
    outer loop
      vertex 2.5 3 4
      vertex 2.5 4 4
      vertex 2 3.5 3.5
    endloop
  endfacet
  facet normal -0.707107 0 0.707107
    outer loop
      vertex 2.5 4 4
      vertex 1.5 4 3
      vertex 2 3.5 3.5
    endloop
  endfacet
  facet normal -0.707107 0 0.707107
    outer loop
      vertex 1.5 4 3
      vertex 1.5 3 3
      vertex 2 3.5 3.5
    endloop
  endfacet
  facet normal 0 -0.447214 0.894427
    outer loop
      vertex 2.5 3 4
      vertex 3.5 3 4
      vertex 3 3.5 4.25
    endloop
  endfacet
  facet normal -0.333333 -0.666667 0.666667
    outer loop
      vertex 3.5 3 4
      vertex 3.5 4 5
      vertex 3 3.5 4.25
    endloop
  endfacet
  facet normal -0.666667 -0.333333 0.666667
    outer loop
      vertex 3.5 4 5
      vertex 2.5 4 4
      vertex 3 3.5 4.25
    endloop
  endfacet
  facet normal -0.447214 0 0.894427
    outer loop
      vertex 2.5 4 4
      vertex 2.5 3 4
      vertex 3 3.5 4.25
    endloop
  endfacet
  facet normal 0.963087 -0.120386 0.240772
    outer loop
      vertex 3.5 3 4
      vertex 4.5 3 0
      vertex 4 3.5 2.25
    endloop
  endfacet
  facet normal 0.976187 -0 0.21693
    outer loop
      vertex 4.5 3 0
      vertex 4.5 4 0
      vertex 4 3.5 2.25
    endloop
  endfacet
  facet normal 0.9759 -0.09759 0.19518
    outer loop
      vertex 4.5 4 0
      vertex 3.5 4 5
      vertex 4 3.5 2.25
    endloop
  endfacet
  facet normal 0.953998 -0.212 0.212
    outer loop
      vertex 3.5 4 5
      vertex 3.5 3 4
      vertex 4 3.5 2.25
    endloop
  endfacet
  facet normal 0 0 1
    outer loop
      vertex 4.5 3 0
      vertex 5.5 3 0
      vertex 5 3.5 0
    endloop
  endfacet
  facet normal 0 -0 1
    outer loop
      vertex 5.5 3 0
      vertex 5.5 4 0
      vertex 5 3.5 0
    endloop
  endfacet
  facet normal 0 0 1
    outer loop
      vertex 5.5 4 0
      vertex 4.5 4 0
      vertex 5 3.5 0
    endloop
  endfacet
  facet normal 0 0 1
    outer loop
      vertex 4.5 4 0
      vertex 4.5 3 0
      vertex 5 3.5 0
    endloop
  endfacet
  facet normal 0.857143 0.428571 0.285714
    outer loop
      vertex -5.5 4 3
      vertex -4.5 4 0
      vertex -5 4.5 0.75
    endloop
  endfacet
  facet normal 0.83205 -0 0.5547
    outer loop
      vertex -4.5 4 0
      vertex -4.5 5 0
      vertex -5 4.5 0.75
    endloop
  endfacet
  facet normal 0 0.83205 0.5547
    outer loop
      vertex -4.5 5 0
      vertex -5.5 5 0
      vertex -5 4.5 0.75
    endloop
  endfacet
  facet normal 0.428571 0.857143 0.285714
    outer loop
      vertex -5.5 5 0
      vertex -5.5 4 3
      vertex -5 4.5 0.75
    endloop
  endfacet
  facet normal 0 0 1
    outer loop
      vertex -4.5 4 0
      vertex -3.5 4 0
      vertex -4 4.5 0
    endloop
  endfacet
  facet normal 0 -0 1
    outer loop
      vertex -3.5 4 0
      vertex -3.5 5 0
      vertex -4 4.5 0
    endloop
  endfacet
  facet normal 0 0 1
    outer loop
      vertex -3.5 5 0
      vertex -4.5 5 0
      vertex -4 4.5 0
    endloop
  endfacet
  facet normal 0 0 1
    outer loop
      vertex -4.5 5 0
      vertex -4.5 4 0
      vertex -4 4.5 0
    endloop
  endfacet
  facet normal 0 0 1
    outer loop
      vertex -3.5 4 0
      vertex -2.5 4 0
      vertex -3 4.5 0
    endloop
  endfacet
  facet normal 0 -0 1
    outer loop
      vertex -2.5 4 0
      vertex -2.5 5 0
      vertex -3 4.5 0
    endloop
  endfacet
  facet normal 0 0 1
    outer loop
      vertex -2.5 5 0
      vertex -3.5 5 0
      vertex -3 4.5 0
    endloop
  endfacet
  facet normal 0 0 1
    outer loop
      vertex -3.5 5 0
      vertex -3.5 4 0
      vertex -3 4.5 0
    endloop
  endfacet
  facet normal 0 0 1
    outer loop
      vertex -2.5 4 0
      vertex -1.5 4 0
      vertex -2 4.5 0
    endloop
  endfacet
  facet normal 0 -0 1
    outer loop
      vertex -1.5 4 0
      vertex -1.5 5 0
      vertex -2 4.5 0
    endloop
  endfacet
  facet normal 0 0 1
    outer loop
      vertex -1.5 5 0
      vertex -2.5 5 0
      vertex -2 4.5 0
    endloop
  endfacet
  facet normal 0 0 1
    outer loop
      vertex -2.5 5 0
      vertex -2.5 4 0
      vertex -2 4.5 0
    endloop
  endfacet
  facet normal -0.666667 0.333333 0.666667
    outer loop
      vertex -1.5 4 0
      vertex -0.5 4 1
      vertex -1 4.5 0.25
    endloop
  endfacet
  facet normal -0.333333 0.666667 0.666667
    outer loop
      vertex -0.5 4 1
      vertex -0.5 5 0
      vertex -1 4.5 0.25
    endloop
  endfacet
  facet normal 0 0.447214 0.894427
    outer loop
      vertex -0.5 5 0
      vertex -1.5 5 0
      vertex -1 4.5 0.25
    endloop
  endfacet
  facet normal -0.447214 0 0.894427
    outer loop
      vertex -1.5 5 0
      vertex -1.5 4 0
      vertex -1 4.5 0.25
    endloop
  endfacet
  facet normal -0.485071 0.727607 0.485071
    outer loop
      vertex -0.5 4 1
      vertex 0.5 4 2
      vertex 0 4.5 0.75
    endloop
  endfacet
  facet normal -0.218218 0.872872 0.436436
    outer loop
      vertex 0.5 4 2
      vertex 0.5 5 0
      vertex 0 4.5 0.75
    endloop
  endfacet
  facet normal 0 0.83205 0.5547
    outer loop
      vertex 0.5 5 0
      vertex -0.5 5 0
      vertex 0 4.5 0.75
    endloop
  endfacet
  facet normal -0.333333 0.666667 0.666667
    outer loop
      vertex -0.5 5 0
      vertex -0.5 4 1
      vertex 0 4.5 0.75
    endloop
  endfacet
  facet normal -0.348155 0.870388 0.348155
    outer loop
      vertex 0.5 4 2
      vertex 1.5 4 3
      vertex 1 4.5 1.25
    endloop
  endfacet
  facet normal -0.156174 0.937043 0.312348
    outer loop
      vertex 1.5 4 3
      vertex 1.5 5 0
      vertex 1 4.5 1.25
    endloop
  endfacet
  facet normal 0 0.928477 0.371391
    outer loop
      vertex 1.5 5 0
      vertex 0.5 5 0
      vertex 1 4.5 1.25
    endloop
  endfacet
  facet normal -0.218218 0.872872 0.436436
    outer loop
      vertex 0.5 5 0
      vertex 0.5 4 2
      vertex 1 4.5 1.25
    endloop
  endfacet
  facet normal -0.264906 0.927173 0.264906
    outer loop
      vertex 1.5 4 3
      vertex 2.5 4 4
      vertex 2 4.5 1.75
    endloop
  endfacet
  facet normal -0.120386 0.963087 0.240772
    outer loop
      vertex 2.5 4 4
      vertex 2.5 5 0
      vertex 2 4.5 1.75
    endloop
  endfacet
  facet normal 0 0.961524 0.274721
    outer loop
      vertex 2.5 5 0
      vertex 1.5 5 0
      vertex 2 4.5 1.75
    endloop
  endfacet
  facet normal -0.156174 0.937043 0.312348
    outer loop
      vertex 1.5 5 0
      vertex 1.5 4 3
      vertex 2 4.5 1.75
    endloop
  endfacet
  facet normal -0.212 0.953998 0.212
    outer loop
      vertex 2.5 4 4
      vertex 3.5 4 5
      vertex 3 4.5 2.25
    endloop
  endfacet
  facet normal -0.09759 0.9759 0.19518
    outer loop
      vertex 3.5 4 5
      vertex 3.5 5 0
      vertex 3 4.5 2.25
    endloop
  endfacet
  facet normal 0 0.976187 0.21693
    outer loop
      vertex 3.5 5 0
      vertex 2.5 5 0
      vertex 3 4.5 2.25
    endloop
  endfacet
  facet normal -0.120386 0.963087 0.240772
    outer loop
      vertex 2.5 5 0
      vertex 2.5 4 4
      vertex 3 4.5 2.25
    endloop
  endfacet
  facet normal 0.880451 0.440225 0.17609
    outer loop
      vertex 3.5 4 5
      vertex 4.5 4 0
      vertex 4 4.5 1.25
    endloop
  endfacet
  facet normal 0.928477 -0 0.371391
    outer loop
      vertex 4.5 4 0
      vertex 4.5 5 0
      vertex 4 4.5 1.25
    endloop
  endfacet
  facet normal 0 0.928477 0.371391
    outer loop
      vertex 4.5 5 0
      vertex 3.5 5 0
      vertex 4 4.5 1.25
    endloop
  endfacet
  facet normal 0.440225 0.880451 0.17609
    outer loop
      vertex 3.5 5 0
      vertex 3.5 4 5
      vertex 4 4.5 1.25
    endloop
  endfacet
  facet normal 0 0 1
    outer loop
      vertex 4.5 4 0
      vertex 5.5 4 0
      vertex 5 4.5 0
    endloop
  endfacet
  facet normal 0 -0 1
    outer loop
      vertex 5.5 4 0
      vertex 5.5 5 0
      vertex 5 4.5 0
    endloop
  endfacet
  facet normal 0 0 1
    outer loop
      vertex 5.5 5 0
      vertex 4.5 5 0
      vertex 5 4.5 0
    endloop
  endfacet
  facet normal 0 0 1
    outer loop
      vertex 4.5 5 0
      vertex 4.5 4 0
      vertex 5 4.5 0
    endloop
  endfacet
  facet normal -1 0 0
    outer loop
      vertex -5.5 -5 0
      vertex -5.5 -4 -1
      vertex -5.5 -5 -1
    endloop
  endfacet
  facet normal -1 0 0
    outer loop
      vertex -5.5 -4 -1
      vertex -5.5 -5 0
      vertex -5.5 -4 9
    endloop
  endfacet
  facet normal 1 -0 0
    outer loop
      vertex 5.5 -5 0
      vertex 5.5 -4 -1
      vertex 5.5 -4 0
    endloop
  endfacet
  facet normal 1 0 0
    outer loop
      vertex 5.5 -4 -1
      vertex 5.5 -5 0
      vertex 5.5 -5 -1
    endloop
  endfacet
  facet normal -1 0 0
    outer loop
      vertex -5.5 -4 -1
      vertex -5.5 -3 8
      vertex -5.5 -3 -1
    endloop
  endfacet
  facet normal -1 -0 0
    outer loop
      vertex -5.5 -3 8
      vertex -5.5 -4 -1
      vertex -5.5 -4 9
    endloop
  endfacet
  facet normal 1 -0 0
    outer loop
      vertex 5.5 -4 0
      vertex 5.5 -3 -1
      vertex 5.5 -3 0
    endloop
  endfacet
  facet normal 1 0 0
    outer loop
      vertex 5.5 -3 -1
      vertex 5.5 -4 0
      vertex 5.5 -4 -1
    endloop
  endfacet
  facet normal -1 0 0
    outer loop
      vertex -5.5 -3 -1
      vertex -5.5 -2 7
      vertex -5.5 -2 -1
    endloop
  endfacet
  facet normal -1 -0 0
    outer loop
      vertex -5.5 -2 7
      vertex -5.5 -3 -1
      vertex -5.5 -3 8
    endloop
  endfacet
  facet normal 1 -0 0
    outer loop
      vertex 5.5 -3 0
      vertex 5.5 -2 -1
      vertex 5.5 -2 0
    endloop
  endfacet
  facet normal 1 0 0
    outer loop
      vertex 5.5 -2 -1
      vertex 5.5 -3 0
      vertex 5.5 -3 -1
    endloop
  endfacet
  facet normal -1 0 0
    outer loop
      vertex -5.5 -2 -1
      vertex -5.5 -1 6
      vertex -5.5 -1 -1
    endloop
  endfacet
  facet normal -1 -0 0
    outer loop
      vertex -5.5 -1 6
      vertex -5.5 -2 -1
      vertex -5.5 -2 7
    endloop
  endfacet
  facet normal 1 -0 0
    outer loop
      vertex 5.5 -2 0
      vertex 5.5 -1 -1
      vertex 5.5 -1 0
    endloop
  endfacet
  facet normal 1 0 0
    outer loop
      vertex 5.5 -1 -1
      vertex 5.5 -2 0
      vertex 5.5 -2 -1
    endloop
  endfacet
  facet normal -1 0 0
    outer loop
      vertex -5.5 -1 -1
      vertex -5.5 0 6
      vertex -5.5 0 -1
    endloop
  endfacet
  facet normal -1 -0 0
    outer loop
      vertex -5.5 0 6
      vertex -5.5 -1 -1
      vertex -5.5 -1 6
    endloop
  endfacet
  facet normal 1 -0 0
    outer loop
      vertex 5.5 -1 0
      vertex 5.5 0 -1
      vertex 5.5 0 0
    endloop
  endfacet
  facet normal 1 0 0
    outer loop
      vertex 5.5 0 -1
      vertex 5.5 -1 0
      vertex 5.5 -1 -1
    endloop
  endfacet
  facet normal -1 0 0
    outer loop
      vertex -5.5 0 -1
      vertex -5.5 1 6
      vertex -5.5 1 -1
    endloop
  endfacet
  facet normal -1 -0 0
    outer loop
      vertex -5.5 1 6
      vertex -5.5 0 -1
      vertex -5.5 0 6
    endloop
  endfacet
  facet normal 1 -0 0
    outer loop
      vertex 5.5 0 0
      vertex 5.5 1 -1
      vertex 5.5 1 0
    endloop
  endfacet
  facet normal 1 0 0
    outer loop
      vertex 5.5 1 -1
      vertex 5.5 0 0
      vertex 5.5 0 -1
    endloop
  endfacet
  facet normal -1 0 0
    outer loop
      vertex -5.5 1 -1
      vertex -5.5 2 6
      vertex -5.5 2 -1
    endloop
  endfacet
  facet normal -1 -0 0
    outer loop
      vertex -5.5 2 6
      vertex -5.5 1 -1
      vertex -5.5 1 6
    endloop
  endfacet
  facet normal 1 -0 0
    outer loop
      vertex 5.5 1 0
      vertex 5.5 2 -1
      vertex 5.5 2 0
    endloop
  endfacet
  facet normal 1 0 0
    outer loop
      vertex 5.5 2 -1
      vertex 5.5 1 0
      vertex 5.5 1 -1
    endloop
  endfacet
  facet normal -1 0 0
    outer loop
      vertex -5.5 2 -1
      vertex -5.5 3 3
      vertex -5.5 3 -1
    endloop
  endfacet
  facet normal -1 -0 0
    outer loop
      vertex -5.5 3 3
      vertex -5.5 2 -1
      vertex -5.5 2 6
    endloop
  endfacet
  facet normal 1 -0 0
    outer loop
      vertex 5.5 2 0
      vertex 5.5 3 -1
      vertex 5.5 3 0
    endloop
  endfacet
  facet normal 1 0 0
    outer loop
      vertex 5.5 3 -1
      vertex 5.5 2 0
      vertex 5.5 2 -1
    endloop
  endfacet
  facet normal -1 0 0
    outer loop
      vertex -5.5 3 -1
      vertex -5.5 4 3
      vertex -5.5 4 -1
    endloop
  endfacet
  facet normal -1 -0 0
    outer loop
      vertex -5.5 4 3
      vertex -5.5 3 -1
      vertex -5.5 3 3
    endloop
  endfacet
  facet normal 1 -0 0
    outer loop
      vertex 5.5 3 0
      vertex 5.5 4 -1
      vertex 5.5 4 0
    endloop
  endfacet
  facet normal 1 0 0
    outer loop
      vertex 5.5 4 -1
      vertex 5.5 3 0
      vertex 5.5 3 -1
    endloop
  endfacet
  facet normal -1 0 0
    outer loop
      vertex -5.5 4 -1
      vertex -5.5 5 0
      vertex -5.5 5 -1
    endloop
  endfacet
  facet normal -1 -0 0
    outer loop
      vertex -5.5 5 0
      vertex -5.5 4 -1
      vertex -5.5 4 3
    endloop
  endfacet
  facet normal 1 -0 0
    outer loop
      vertex 5.5 4 0
      vertex 5.5 5 -1
      vertex 5.5 5 0
    endloop
  endfacet
  facet normal 1 0 0
    outer loop
      vertex 5.5 5 -1
      vertex 5.5 4 0
      vertex 5.5 4 -1
    endloop
  endfacet
  facet normal 0 -1 0
    outer loop
      vertex -4.5 -5 -1
      vertex -5.5 -5 0
      vertex -5.5 -5 -1
    endloop
  endfacet
  facet normal 0 -1 0
    outer loop
      vertex -5.5 -5 0
      vertex -4.5 -5 -1
      vertex -4.5 -5 9
    endloop
  endfacet
  facet normal 0 1 -0
    outer loop
      vertex -4.5 5 -1
      vertex -5.5 5 0
      vertex -4.5 5 0
    endloop
  endfacet
  facet normal 0 1 0
    outer loop
      vertex -5.5 5 0
      vertex -4.5 5 -1
      vertex -5.5 5 -1
    endloop
  endfacet
  facet normal 0 -1 0
    outer loop
      vertex -4.5 -5 -1
      vertex -3.5 -5 8
      vertex -4.5 -5 9
    endloop
  endfacet
  facet normal 0 -1 -0
    outer loop
      vertex -3.5 -5 8
      vertex -4.5 -5 -1
      vertex -3.5 -5 -1
    endloop
  endfacet
  facet normal 0 1 -0
    outer loop
      vertex -3.5 5 -1
      vertex -4.5 5 0
      vertex -3.5 5 0
    endloop
  endfacet
  facet normal 0 1 0
    outer loop
      vertex -4.5 5 0
      vertex -3.5 5 -1
      vertex -4.5 5 -1
    endloop
  endfacet
  facet normal 0 -1 0
    outer loop
      vertex -3.5 -5 -1
      vertex -2.5 -5 7
      vertex -3.5 -5 8
    endloop
  endfacet
  facet normal 0 -1 -0
    outer loop
      vertex -2.5 -5 7
      vertex -3.5 -5 -1
      vertex -2.5 -5 -1
    endloop
  endfacet
  facet normal 0 1 -0
    outer loop
      vertex -2.5 5 -1
      vertex -3.5 5 0
      vertex -2.5 5 0
    endloop
  endfacet
  facet normal 0 1 0
    outer loop
      vertex -3.5 5 0
      vertex -2.5 5 -1
      vertex -3.5 5 -1
    endloop
  endfacet
  facet normal 0 -1 0
    outer loop
      vertex -2.5 -5 -1
      vertex -1.5 -5 6
      vertex -2.5 -5 7
    endloop
  endfacet
  facet normal 0 -1 -0
    outer loop
      vertex -1.5 -5 6
      vertex -2.5 -5 -1
      vertex -1.5 -5 -1
    endloop
  endfacet
  facet normal 0 1 -0
    outer loop
      vertex -1.5 5 -1
      vertex -2.5 5 0
      vertex -1.5 5 0
    endloop
  endfacet
  facet normal 0 1 0
    outer loop
      vertex -2.5 5 0
      vertex -1.5 5 -1
      vertex -2.5 5 -1
    endloop
  endfacet
  facet normal 0 -1 0
    outer loop
      vertex -1.5 -5 -1
      vertex -0.5 -5 5
      vertex -1.5 -5 6
    endloop
  endfacet
  facet normal 0 -1 -0
    outer loop
      vertex -0.5 -5 5
      vertex -1.5 -5 -1
      vertex -0.5 -5 -1
    endloop
  endfacet
  facet normal 0 1 -0
    outer loop
      vertex -0.5 5 -1
      vertex -1.5 5 0
      vertex -0.5 5 0
    endloop
  endfacet
  facet normal 0 1 0
    outer loop
      vertex -1.5 5 0
      vertex -0.5 5 -1
      vertex -1.5 5 -1
    endloop
  endfacet
  facet normal 0 -1 0
    outer loop
      vertex -0.5 -5 -1
      vertex 0.5 -5 5
      vertex -0.5 -5 5
    endloop
  endfacet
  facet normal 0 -1 -0
    outer loop
      vertex 0.5 -5 5
      vertex -0.5 -5 -1
      vertex 0.5 -5 -1
    endloop
  endfacet
  facet normal 0 1 -0
    outer loop
      vertex 0.5 5 -1
      vertex -0.5 5 0
      vertex 0.5 5 0
    endloop
  endfacet
  facet normal 0 1 0
    outer loop
      vertex -0.5 5 0
      vertex 0.5 5 -1
      vertex -0.5 5 -1
    endloop
  endfacet
  facet normal 0 -1 0
    outer loop
      vertex 0.5 -5 -1
      vertex 1.5 -5 5
      vertex 0.5 -5 5
    endloop
  endfacet
  facet normal 0 -1 -0
    outer loop
      vertex 1.5 -5 5
      vertex 0.5 -5 -1
      vertex 1.5 -5 -1
    endloop
  endfacet
  facet normal 0 1 -0
    outer loop
      vertex 1.5 5 -1
      vertex 0.5 5 0
      vertex 1.5 5 0
    endloop
  endfacet
  facet normal 0 1 0
    outer loop
      vertex 0.5 5 0
      vertex 1.5 5 -1
      vertex 0.5 5 -1
    endloop
  endfacet
  facet normal 0 -1 0
    outer loop
      vertex 1.5 -5 -1
      vertex 2.5 -5 5
      vertex 1.5 -5 5
    endloop
  endfacet
  facet normal 0 -1 -0
    outer loop
      vertex 2.5 -5 5
      vertex 1.5 -5 -1
      vertex 2.5 -5 -1
    endloop
  endfacet
  facet normal 0 1 -0
    outer loop
      vertex 2.5 5 -1
      vertex 1.5 5 0
      vertex 2.5 5 0
    endloop
  endfacet
  facet normal 0 1 0
    outer loop
      vertex 1.5 5 0
      vertex 2.5 5 -1
      vertex 1.5 5 -1
    endloop
  endfacet
  facet normal 0 -1 0
    outer loop
      vertex 2.5 -5 -1
      vertex 3.5 -5 5
      vertex 2.5 -5 5
    endloop
  endfacet
  facet normal 0 -1 -0
    outer loop
      vertex 3.5 -5 5
      vertex 2.5 -5 -1
      vertex 3.5 -5 -1
    endloop
  endfacet
  facet normal 0 1 -0
    outer loop
      vertex 3.5 5 -1
      vertex 2.5 5 0
      vertex 3.5 5 0
    endloop
  endfacet
  facet normal 0 1 0
    outer loop
      vertex 2.5 5 0
      vertex 3.5 5 -1
      vertex 2.5 5 -1
    endloop
  endfacet
  facet normal 0 -1 0
    outer loop
      vertex 3.5 -5 -1
      vertex 4.5 -5 0
      vertex 3.5 -5 5
    endloop
  endfacet
  facet normal 0 -1 -0
    outer loop
      vertex 4.5 -5 0
      vertex 3.5 -5 -1
      vertex 4.5 -5 -1
    endloop
  endfacet
  facet normal 0 1 -0
    outer loop
      vertex 4.5 5 -1
      vertex 3.5 5 0
      vertex 4.5 5 0
    endloop
  endfacet
  facet normal 0 1 0
    outer loop
      vertex 3.5 5 0
      vertex 4.5 5 -1
      vertex 3.5 5 -1
    endloop
  endfacet
  facet normal 0 -1 0
    outer loop
      vertex 4.5 -5 -1
      vertex 5.5 -5 0
      vertex 4.5 -5 0
    endloop
  endfacet
  facet normal 0 -1 -0
    outer loop
      vertex 5.5 -5 0
      vertex 4.5 -5 -1
      vertex 5.5 -5 -1
    endloop
  endfacet
  facet normal 0 1 -0
    outer loop
      vertex 5.5 5 -1
      vertex 4.5 5 0
      vertex 5.5 5 0
    endloop
  endfacet
  facet normal 0 1 0
    outer loop
      vertex 4.5 5 0
      vertex 5.5 5 -1
      vertex 4.5 5 -1
    endloop
  endfacet
  facet normal 0 0 -1
    outer loop
      vertex 4.5 -5 -1
      vertex 5.5 -4 -1
      vertex 5.5 -5 -1
    endloop
  endfacet
  facet normal -0 0 -1
    outer loop
      vertex 5.5 -4 -1
      vertex 4.5 -5 -1
      vertex 5.5 -3 -1
    endloop
  endfacet
  facet normal 0 0 -1
    outer loop
      vertex 3.5 -5 -1
      vertex 5.5 -3 -1
      vertex 4.5 -5 -1
    endloop
  endfacet
  facet normal -0 0 -1
    outer loop
      vertex 5.5 -3 -1
      vertex 3.5 -5 -1
      vertex 5.5 -2 -1
    endloop
  endfacet
  facet normal 0 0 -1
    outer loop
      vertex 2.5 -5 -1
      vertex 5.5 -2 -1
      vertex 3.5 -5 -1
    endloop
  endfacet
  facet normal -0 0 -1
    outer loop
      vertex 5.5 -2 -1
      vertex 2.5 -5 -1
      vertex 5.5 -1 -1
    endloop
  endfacet
  facet normal 0 0 -1
    outer loop
      vertex 1.5 -5 -1
      vertex 5.5 -1 -1
      vertex 2.5 -5 -1
    endloop
  endfacet
  facet normal -0 0 -1
    outer loop
      vertex 5.5 -1 -1
      vertex 1.5 -5 -1
      vertex 5.5 0 -1
    endloop
  endfacet
  facet normal 0 0 -1
    outer loop
      vertex 0.5 -5 -1
      vertex 5.5 0 -1
      vertex 1.5 -5 -1
    endloop
  endfacet
  facet normal 0 0 -1
    outer loop
      vertex 0.5 5 -1
      vertex 5.5 0 -1
      vertex 0.5 -5 -1
    endloop
  endfacet
  facet normal 0 0 -1
    outer loop
      vertex 5.5 4 -1
      vertex 4.5 5 -1
      vertex 5.5 5 -1
    endloop
  endfacet
  facet normal 0 0 -1
    outer loop
      vertex 5.5 0 -1
      vertex 0.5 5 -1
      vertex 5.5 1 -1
    endloop
  endfacet
  facet normal 0 0 -1
    outer loop
      vertex 5.5 4 -1
      vertex 3.5 5 -1
      vertex 4.5 5 -1
    endloop
  endfacet
  facet normal -0 -0 -1
    outer loop
      vertex 3.5 5 -1
      vertex 5.5 3 -1
      vertex 2.5 5 -1
    endloop
  endfacet
  facet normal 0 0 -1
    outer loop
      vertex 5.5 3 -1
      vertex 3.5 5 -1
      vertex 5.5 4 -1
    endloop
  endfacet
  facet normal -0 -0 -1
    outer loop
      vertex 2.5 5 -1
      vertex 5.5 2 -1
      vertex 1.5 5 -1
    endloop
  endfacet
  facet normal 0 0 -1
    outer loop
      vertex 5.5 2 -1
      vertex 2.5 5 -1
      vertex 5.5 3 -1
    endloop
  endfacet
  facet normal -0 -0 -1
    outer loop
      vertex 1.5 5 -1
      vertex 5.5 1 -1
      vertex 0.5 5 -1
    endloop
  endfacet
  facet normal 0 0 -1
    outer loop
      vertex 5.5 1 -1
      vertex 1.5 5 -1
      vertex 5.5 2 -1
    endloop
  endfacet
  facet normal 0 0 -1
    outer loop
      vertex -0.5 -5 -1
      vertex 0.5 5 -1
      vertex 0.5 -5 -1
    endloop
  endfacet
  facet normal 0 0 -1
    outer loop
      vertex -0.5 -5 -1
      vertex -0.5 5 -1
      vertex 0.5 5 -1
    endloop
  endfacet
  facet normal 0 0 -1
    outer loop
      vertex -5.5 0 -1
      vertex -0.5 -5 -1
      vertex -1.5 -5 -1
    endloop
  endfacet
  facet normal 0 0 -1
    outer loop
      vertex -0.5 -5 -1
      vertex -5.5 0 -1
      vertex -0.5 5 -1
    endloop
  endfacet
  facet normal 0 0 -1
    outer loop
      vertex -5.5 -1 -1
      vertex -1.5 -5 -1
      vertex -2.5 -5 -1
    endloop
  endfacet
  facet normal -0 0 -1
    outer loop
      vertex -0.5 5 -1
      vertex -5.5 0 -1
      vertex -1.5 5 -1
    endloop
  endfacet
  facet normal 0 0 -1
    outer loop
      vertex -5.5 -2 -1
      vertex -2.5 -5 -1
      vertex -3.5 -5 -1
    endloop
  endfacet
  facet normal 0 0 -1
    outer loop
      vertex -5.5 1 -1
      vertex -1.5 5 -1
      vertex -5.5 0 -1
    endloop
  endfacet
  facet normal 0 0 -1
    outer loop
      vertex -5.5 -3 -1
      vertex -3.5 -5 -1
      vertex -4.5 -5 -1
    endloop
  endfacet
  facet normal 0 0 -1
    outer loop
      vertex -1.5 -5 -1
      vertex -5.5 -1 -1
      vertex -5.5 0 -1
    endloop
  endfacet
  facet normal 0 0 -1
    outer loop
      vertex -5.5 -4 -1
      vertex -4.5 -5 -1
      vertex -5.5 -5 -1
    endloop
  endfacet
  facet normal 0 0 -1
    outer loop
      vertex -5.5 -3 -1
      vertex -4.5 -5 -1
      vertex -5.5 -4 -1
    endloop
  endfacet
  facet normal 0 0 -1
    outer loop
      vertex -3.5 -5 -1
      vertex -5.5 -3 -1
      vertex -5.5 -2 -1
    endloop
  endfacet
  facet normal 0 0 -1
    outer loop
      vertex -2.5 -5 -1
      vertex -5.5 -2 -1
      vertex -5.5 -1 -1
    endloop
  endfacet
  facet normal -0 0 -1
    outer loop
      vertex -1.5 5 -1
      vertex -5.5 1 -1
      vertex -2.5 5 -1
    endloop
  endfacet
  facet normal 0 0 -1
    outer loop
      vertex -5.5 2 -1
      vertex -2.5 5 -1
      vertex -5.5 1 -1
    endloop
  endfacet
  facet normal -0 0 -1
    outer loop
      vertex -2.5 5 -1
      vertex -5.5 2 -1
      vertex -3.5 5 -1
    endloop
  endfacet
  facet normal 0 0 -1
    outer loop
      vertex -5.5 3 -1
      vertex -3.5 5 -1
      vertex -5.5 2 -1
    endloop
  endfacet
  facet normal -0 0 -1
    outer loop
      vertex -3.5 5 -1
      vertex -5.5 3 -1
      vertex -4.5 5 -1
    endloop
  endfacet
  facet normal 0 0 -1
    outer loop
      vertex -5.5 4 -1
      vertex -4.5 5 -1
      vertex -5.5 3 -1
    endloop
  endfacet
  facet normal -0 0 -1
    outer loop
      vertex -4.5 5 -1
      vertex -5.5 4 -1
      vertex -5.5 5 -1
    endloop
  endfacet
endsolid OpenSCAD_Model
